<?plantuml 1.2026.1beta5?><svg xmlns="http://www.w3.org/2000/svg" xmlns:xlink="http://www.w3.org/1999/xlink" contentStyleType="text/css" data-diagram-type="DESCRIPTION" height="500px" preserveAspectRatio="none" style="width:990px;height:500px;background:#FFFFFF;" version="1.1" viewBox="0 0 990 500" width="990px" zoomAndPan="magnify"><defs/><g><!--cluster Frontend (UI)--><g class="cluster" data-qualified-name="Frontend .UI." data-source-line="4" id="ent0002"><path d="M8.5,6 L115.9766,6 A3.75,3.75 0 0 1 118.4766,8.5 L125.4766,28.2969 L980.5,28.2969 A2.5,2.5 0 0 1 983,30.7969 L983,90.79 A2.5,2.5 0 0 1 980.5,93.29 L8.5,93.29 A2.5,2.5 0 0 1 6,90.79 L6,8.5 A2.5,2.5 0 0 1 8.5,6" fill="none" style="stroke:#000000;stroke-width:1.5;"/><line style="stroke:#000000;stroke-width:1.5;" x1="6" x2="125.4766" y1="28.2969" y2="28.2969"/><text fill="#000000" font-family="sans-serif" font-size="14" font-weight="bold" lengthAdjust="spacing" textLength="106.4766" x="10" y="20.9951">Frontend (UI)</text></g><!--cluster Backend (Orchestration / Server Layer)--><g class="cluster" data-qualified-name="Backend .Orchestration . Server Layer." data-source-line="11" id="ent0007"><path d="M340.5,117.29 L651.0381,117.29 A3.75,3.75 0 0 1 653.5381,119.79 L660.5381,139.5869 L918.5,139.5869 A2.5,2.5 0 0 1 921,142.0869 L921,490.98 A2.5,2.5 0 0 1 918.5,493.48 L340.5,493.48 A2.5,2.5 0 0 1 338,490.98 L338,119.79 A2.5,2.5 0 0 1 340.5,117.29" fill="none" style="stroke:#000000;stroke-width:1.5;"/><line style="stroke:#000000;stroke-width:1.5;" x1="338" x2="660.5381" y1="139.5869" y2="139.5869"/><text fill="#000000" font-family="sans-serif" font-size="14" font-weight="bold" lengthAdjust="spacing" textLength="309.5381" x="342" y="132.2851">Backend (Orchestration / Server Layer)</text></g><!--entity Upload--><g class="entity" data-qualified-name="Frontend .UI..Upload" data-source-line="5" id="ent0003"><rect fill="#F1F1F1" height="36.2969" rx="2.5" ry="2.5" style="stroke:#181818;stroke-width:0.5;" width="213.1631" x="22.42" y="41"/><text fill="#000000" font-family="sans-serif" font-size="14" lengthAdjust="spacing" textLength="193.1631" x="32.42" y="63.9951">Document Upload Interface</text></g><!--entity Search--><g class="entity" data-qualified-name="Frontend .UI..Search" data-source-line="6" id="ent0004"><rect fill="#F1F1F1" height="36.2969" rx="2.5" ry="2.5" style="stroke:#181818;stroke-width:0.5;" width="218.1943" x="270.9" y="41"/><text fill="#000000" font-family="sans-serif" font-size="14" lengthAdjust="spacing" textLength="198.1943" x="280.9" y="63.9951">Search &amp; Retrieval Interface</text></g><!--entity DashboardUI--><g class="entity" data-qualified-name="Frontend .UI..DashboardUI" data-source-line="7" id="ent0005"><rect fill="#F1F1F1" height="36.2969" rx="2.5" ry="2.5" style="stroke:#181818;stroke-width:0.5;" width="254.1855" x="523.91" y="41"/><text fill="#000000" font-family="sans-serif" font-size="14" lengthAdjust="spacing" textLength="234.1855" x="533.91" y="63.9951">Results Dashboard / Visualization</text></g><!--entity NotificationUI--><g class="entity" data-qualified-name="Frontend .UI..NotificationUI" data-source-line="8" id="ent0006"><rect fill="#F1F1F1" height="36.2969" rx="2.5" ry="2.5" style="stroke:#181818;stroke-width:0.5;" width="154.5654" x="812.72" y="41"/><text fill="#000000" font-family="sans-serif" font-size="14" lengthAdjust="spacing" textLength="134.5654" x="822.72" y="63.9951">Notification / Alerts</text></g><!--entity API--><g class="entity" data-qualified-name="Backend .Orchestration . Server Layer..API" data-source-line="12" id="ent0008"><rect fill="#F1F1F1" height="36.2969" rx="2.5" ry="2.5" style="stroke:#181818;stroke-width:0.5;" width="168.4219" x="357.79" y="152.29"/><text fill="#000000" font-family="sans-serif" font-size="14" lengthAdjust="spacing" textLength="148.4219" x="367.79" y="175.2851">API / Controller Layer</text></g><!--entity Orchestrator--><g class="entity" data-qualified-name="Backend .Orchestration . Server Layer..Orchestrator" data-source-line="13" id="ent0009"><rect fill="#F1F1F1" height="36.2969" rx="2.5" ry="2.5" style="stroke:#181818;stroke-width:0.5;" width="265.6289" x="565.19" y="248.59"/><text fill="#000000" font-family="sans-serif" font-size="14" lengthAdjust="spacing" textLength="245.6289" x="575.19" y="271.5851">Document Processing Orchestrator</text></g><!--entity AI--><g class="entity" data-qualified-name="Backend .Orchestration . Server Layer..AI" data-source-line="14" id="ent0010"><rect fill="#F1F1F1" height="36.2969" rx="2.5" ry="2.5" style="stroke:#181818;stroke-width:0.5;" width="170.6572" x="697.67" y="344.89"/><text fill="#000000" font-family="sans-serif" font-size="14" lengthAdjust="spacing" textLength="150.6572" x="707.67" y="367.8851">AI Integration Module</text></g><!--entity Storage--><g class="entity" data-qualified-name="Backend .Orchestration . Server Layer..Storage" data-source-line="15" id="ent0011"><rect fill="#F1F1F1" height="36.2969" rx="2.5" ry="2.5" style="stroke:#181818;stroke-width:0.5;" width="198.0967" x="683.95" y="441.18"/><text fill="#000000" font-family="sans-serif" font-size="14" lengthAdjust="spacing" textLength="178.0967" x="693.95" y="464.1751">Storage Service Interface</text></g><!--entity SearchEngine--><g class="entity" data-qualified-name="Backend .Orchestration . Server Layer..SearchEngine" data-source-line="16" id="ent0012"><rect fill="#F1F1F1" height="36.2969" rx="2.5" ry="2.5" style="stroke:#181818;stroke-width:0.5;" width="176.1943" x="353.9" y="248.59"/><text fill="#000000" font-family="sans-serif" font-size="14" lengthAdjust="spacing" textLength="156.1943" x="363.9" y="271.5851">Search Engine Module</text></g><!--entity NotifyService--><g class="entity" data-qualified-name="Backend .Orchestration . Server Layer..NotifyService" data-source-line="17" id="ent0013"><rect fill="#F1F1F1" height="36.2969" rx="2.5" ry="2.5" style="stroke:#181818;stroke-width:0.5;" width="156.5205" x="505.74" y="344.89"/><text fill="#000000" font-family="sans-serif" font-size="14" lengthAdjust="spacing" textLength="136.5205" x="515.74" y="367.8851">Notification Service</text></g><!--entity AdminModule--><g class="entity" data-qualified-name="Backend .Orchestration . Server Layer..AdminModule" data-source-line="18" id="ent0014"><rect fill="#F1F1F1" height="36.2969" rx="2.5" ry="2.5" style="stroke:#181818;stroke-width:0.5;" width="214.9063" x="690.55" y="152.29"/><text fill="#000000" font-family="sans-serif" font-size="14" lengthAdjust="spacing" textLength="194.9063" x="700.55" y="175.2851">Admin &amp; Monitoring Module</text></g><!--link Upload to API--><g class="link" data-entity-1="ent0003" data-entity-2="ent0008" data-link-type="dependency" data-source-line="22" id="lnk15"><path d="M129,77.78 C129,109.47 129,170.48 129,170.48 C129,170.48 258.6,170.48 351.3,170.48" fill="none" id="Upload-to-API" style="stroke:#181818;stroke-width:1;"/><polygon fill="#181818" points="357.3,170.48,348.3,166.48,352.3,170.48,348.3,174.48,357.3,170.48" style="stroke:#181818;stroke-width:1;"/></g><!--link Search to API--><g class="link" data-entity-1="ent0004" data-entity-2="ent0008" data-link-type="dependency" data-source-line="23" id="lnk16"><path d="M423.44,77.77 C423.44,98.44 423.44,125.58 423.44,146.12" fill="none" id="Search-to-API" style="stroke:#181818;stroke-width:1;"/><polygon fill="#181818" points="423.44,152.12,427.44,143.12,423.44,147.12,419.44,143.12,423.44,152.12" style="stroke:#181818;stroke-width:1;"/></g><!--link DashboardUI to API--><g class="link" data-entity-1="ent0005" data-entity-2="ent0008" data-link-type="dependency" data-source-line="24" id="lnk17"><path d="M523.53,59.48 C509.8,59.48 500.7,59.48 500.7,59.48 C500.7,59.48 500.7,114.28 500.7,145.87" fill="none" id="DashboardUI-to-API" style="stroke:#181818;stroke-width:1;"/><polygon fill="#181818" points="500.7,151.87,504.7,142.87,500.7,146.87,496.7,142.87,500.7,151.87" style="stroke:#181818;stroke-width:1;"/></g><!--link NotificationUI to API--><g class="link" data-entity-1="ent0006" data-entity-2="ent0008" data-link-type="dependency" data-source-line="25" id="lnk18"><path d="M859.09,77.59 C859.09,94.02 859.09,115.48 859.09,115.48 C859.09,115.48 512.3,115.48 512.3,115.48 C512.3,115.48 512.3,129.89 512.3,145.83" fill="none" id="NotificationUI-to-API" style="stroke:#181818;stroke-width:1;"/><polygon fill="#181818" points="512.3,151.83,516.3,142.83,512.3,146.83,508.3,142.83,512.3,151.83" style="stroke:#181818;stroke-width:1;"/></g><!--link API to Orchestrator--><g class="link" data-entity-1="ent0008" data-entity-2="ent0009" data-link-type="dependency" data-source-line="28" id="lnk19"><path d="M526.5,170.48 C575.6,170.48 627.87,170.48 627.87,170.48 C627.87,170.48 627.87,214.21 627.87,242.18" fill="none" id="API-to-Orchestrator" style="stroke:#181818;stroke-width:1;"/><polygon fill="#181818" points="627.87,248.18,631.87,239.18,627.87,243.18,623.87,239.18,627.87,248.18" style="stroke:#181818;stroke-width:1;"/></g><!--link Orchestrator to AI--><g class="link" data-entity-1="ent0009" data-entity-2="ent0010" data-link-type="dependency" data-source-line="29" id="lnk20"><path d="M764.24,285.3 C764.24,302.36 764.24,321.49 764.24,338.52" fill="none" id="Orchestrator-to-AI" style="stroke:#181818;stroke-width:1;"/><polygon fill="#181818" points="764.24,344.52,768.24,335.52,764.24,339.52,760.24,335.52,764.24,344.52" style="stroke:#181818;stroke-width:1;"/></g><!--link AI to Storage--><g class="link" data-entity-1="ent0010" data-entity-2="ent0011" data-link-type="dependency" data-source-line="30" id="lnk21"><path d="M783,381.6 C783,398.65 783,417.79 783,434.82" fill="none" id="AI-to-Storage" style="stroke:#181818;stroke-width:1;"/><polygon fill="#181818" points="783,440.82,787,431.82,783,435.82,779,431.82,783,440.82" style="stroke:#181818;stroke-width:1;"/></g><!--link Orchestrator to NotifyService--><g class="link" data-entity-1="ent0009" data-entity-2="ent0013" data-link-type="dependency" data-source-line="31" id="lnk22"><path d="M613.72,285.3 C613.72,302.36 613.72,321.49 613.72,338.52" fill="none" id="Orchestrator-to-NotifyService" style="stroke:#181818;stroke-width:1;"/><polygon fill="#181818" points="613.72,344.52,617.72,335.52,613.72,339.52,609.72,335.52,613.72,344.52" style="stroke:#181818;stroke-width:1;"/></g><!--link API to SearchEngine--><g class="link" data-entity-1="ent0008" data-entity-2="ent0012" data-link-type="dependency" data-source-line="34" id="lnk23"><path d="M413.93,189.01 C413.93,206.06 413.93,225.19 413.93,242.23" fill="none" id="API-to-SearchEngine" style="stroke:#181818;stroke-width:1;"/><polygon fill="#181818" points="413.93,248.23,417.93,239.23,413.93,243.23,409.93,239.23,413.93,248.23" style="stroke:#181818;stroke-width:1;"/></g><!--link SearchEngine to API--><g class="link" data-entity-1="ent0012" data-entity-2="ent0008" data-link-type="dependency" data-source-line="36" id="lnk25"><path d="M470.07,248.17 C470.07,231.12 470.07,211.98 470.07,194.95" fill="none" id="SearchEngine-to-API" style="stroke:#181818;stroke-width:1;"/><polygon fill="#181818" points="470.07,188.95,466.07,197.95,470.07,193.95,474.07,197.95,470.07,188.95" style="stroke:#181818;stroke-width:1;"/></g><!--link SearchEngine to Storage--><g class="link" data-entity-1="ent0012" data-entity-2="ent0011" data-link-type="dependency" data-source-line="35" id="lnk24"><path d="M429.82,285.22 C429.82,333.46 429.82,459.48 429.82,459.48 C429.82,459.48 573.22,459.48 677.68,459.48" fill="none" id="SearchEngine-to-Storage" style="stroke:#181818;stroke-width:1;"/><polygon fill="#181818" points="683.68,459.48,674.68,455.48,678.68,459.48,674.68,463.48,683.68,459.48" style="stroke:#181818;stroke-width:1;"/></g><!--link AdminModule to Orchestrator--><g class="link" data-entity-1="ent0014" data-entity-2="ent0009" data-link-type="dependency" data-source-line="39" id="lnk26"><path d="M760.68,189.01 C760.68,206.06 760.68,225.19 760.68,242.23" fill="none" id="AdminModule-to-Orchestrator" style="stroke:#181818;stroke-width:1;"/><polygon fill="#181818" points="760.68,248.23,764.68,239.23,760.68,243.23,756.68,239.23,760.68,248.23" style="stroke:#181818;stroke-width:1;"/></g><!--link AdminModule to AI--><g class="link" data-entity-1="ent0014" data-entity-2="ent0010" data-link-type="dependency" data-source-line="40" id="lnk27"><path d="M849.57,188.91 C849.57,225.72 849.57,301.86 849.57,338.62" fill="none" id="AdminModule-to-AI" style="stroke:#181818;stroke-width:1;"/><polygon fill="#181818" points="849.57,344.62,853.57,335.62,849.57,339.62,845.57,335.62,849.57,344.62" style="stroke:#181818;stroke-width:1;"/></g><!--link AdminModule to Storage--><g class="link" data-entity-1="ent0014" data-entity-2="ent0011" data-link-type="dependency" data-source-line="41" id="lnk28"><path d="M875.19,188.95 C875.19,241.13 875.19,382.98 875.19,434.97" fill="none" id="AdminModule-to-Storage" style="stroke:#181818;stroke-width:1;"/><polygon fill="#181818" points="875.19,440.97,879.19,431.97,875.19,435.97,871.19,431.97,875.19,440.97" style="stroke:#181818;stroke-width:1;"/></g><?plantuml-src RP9BJiCm48RtESMe2nwBgZT02fHAaIXKZSe6iJ3EDBNgs97j50N4bWDmH4w24xkfdT9LFVy_hs-YzqpKH94AgAngAL2OtBGSGI4rH9GS4prOE1DesXf1AhEJIL8JkYSbmcIXf30e2hZQPDSJ-4p0_bxcaZQLBGYRcajIG6OzQaielWBHFkYSEH95Tt01QpIAuO7maTaPd7cDkk56mvpetPiage0PF3FT4Cu-Y65Iz1c3kibSsgCqRCjexx0PAKTbT6yD5Ul-2XQxjN_wlPviUzH67TDpL0TKy41QLAUDqrLcjJiBGqdEZthVn4eZAYibAMhDH0cdwjAvmu0ldVL8IZ_1KXODTsnINpYttcxeRZH6SKpGgH7lUr7QYuQrdE3Y_s3pfK_KMX_nCnOL4_QAIocORTTj5ixPgUxTCRw4uQlv_Vu1JphntyfqUjCZyvCUdy5LXrXylY5i6yH7Mt3vddGNwXmHuF3XyhCaTRuZjZDBlBvjvYUDkaGumqTK-qpmupkSim1d4Z0yNsCiTbkCGhxb7m00?></g></svg>