<?plantuml 1.2026.1beta5?><svg xmlns="http://www.w3.org/2000/svg" xmlns:xlink="http://www.w3.org/1999/xlink" contentStyleType="text/css" data-diagram-type="DESCRIPTION" height="500px" preserveAspectRatio="none" style="width:990px;height:500px;background:#FFFFFF;" version="1.1" viewBox="0 0 990 500" width="990px" zoomAndPan="magnify"><defs/><g><!--cluster Frontend (UI)--><g class="cluster" data-qualified-name="Frontend .UI." data-source-line="3" id="ent0002"><path d="M8.5,6 L115.9766,6 A3.75,3.75 0 0 1 118.4766,8.5 L125.4766,28.2969 L980.5,28.2969 A2.5,2.5 0 0 1 983,30.7969 L983,90.79 A2.5,2.5 0 0 1 980.5,93.29 L8.5,93.29 A2.5,2.5 0 0 1 6,90.79 L6,8.5 A2.5,2.5 0 0 1 8.5,6" fill="none" style="stroke:#000000;stroke-width:1.5;"/><line style="stroke:#000000;stroke-width:1.5;" x1="6" x2="125.4766" y1="28.2969" y2="28.2969"/><text fill="#000000" font-family="sans-serif" font-size="14" font-weight="bold" lengthAdjust="spacing" textLength="106.4766" x="10" y="20.9951">Frontend (UI)</text></g><!--cluster Backend (Orchestration / Server Layer)--><g class="cluster" data-qualified-name="Backend .Orchestration . Server Layer." data-source-line="10" id="ent0007"><path d="M307.5,117.29 L618.0381,117.29 A3.75,3.75 0 0 1 620.5381,119.79 L627.5381,139.5869 L885.5,139.5869 A2.5,2.5 0 0 1 888,142.0869 L888,490.98 A2.5,2.5 0 0 1 885.5,493.48 L307.5,493.48 A2.5,2.5 0 0 1 305,490.98 L305,119.79 A2.5,2.5 0 0 1 307.5,117.29" fill="none" style="stroke:#000000;stroke-width:1.5;"/><line style="stroke:#000000;stroke-width:1.5;" x1="305" x2="627.5381" y1="139.5869" y2="139.5869"/><text fill="#000000" font-family="sans-serif" font-size="14" font-weight="bold" lengthAdjust="spacing" textLength="309.5381" x="309" y="132.2851">Backend (Orchestration / Server Layer)</text></g><!--entity Document Upload Interface--><g class="entity" data-qualified-name="Frontend .UI..Document Upload Interface" data-source-line="4" id="ent0003"><rect fill="#F1F1F1" height="36.2969" rx="2.5" ry="2.5" style="stroke:#181818;stroke-width:0.5;" width="213.1631" x="22.42" y="41"/><text fill="#000000" font-family="sans-serif" font-size="14" lengthAdjust="spacing" textLength="193.1631" x="32.42" y="63.9951">Document Upload Interface</text></g><!--entity Search & Retrieval Interface--><g class="entity" data-qualified-name="Frontend .UI..Search . Retrieval Interface" data-source-line="5" id="ent0004"><rect fill="#F1F1F1" height="36.2969" rx="2.5" ry="2.5" style="stroke:#181818;stroke-width:0.5;" width="218.1943" x="270.9" y="41"/><text fill="#000000" font-family="sans-serif" font-size="14" lengthAdjust="spacing" textLength="198.1943" x="280.9" y="63.9951">Search &amp; Retrieval Interface</text></g><!--entity Results Dashboard / Visualization--><g class="entity" data-qualified-name="Frontend .UI..Results Dashboard . Visualization" data-source-line="6" id="ent0005"><rect fill="#F1F1F1" height="36.2969" rx="2.5" ry="2.5" style="stroke:#181818;stroke-width:0.5;" width="254.1855" x="523.91" y="41"/><text fill="#000000" font-family="sans-serif" font-size="14" lengthAdjust="spacing" textLength="234.1855" x="533.91" y="63.9951">Results Dashboard / Visualization</text></g><!--entity Notification / Alerts--><g class="entity" data-qualified-name="Frontend .UI..Notification . Alerts" data-source-line="7" id="ent0006"><rect fill="#F1F1F1" height="36.2969" rx="2.5" ry="2.5" style="stroke:#181818;stroke-width:0.5;" width="154.5654" x="812.72" y="41"/><text fill="#000000" font-family="sans-serif" font-size="14" lengthAdjust="spacing" textLength="134.5654" x="822.72" y="63.9951">Notification / Alerts</text></g><!--entity API / Controller Layer--><g class="entity" data-qualified-name="Backend .Orchestration . Server Layer..API . Controller Layer" data-source-line="11" id="ent0008"><rect fill="#F1F1F1" height="36.2969" rx="2.5" ry="2.5" style="stroke:#181818;stroke-width:0.5;" width="168.4219" x="389.79" y="152.29"/><text fill="#000000" font-family="sans-serif" font-size="14" lengthAdjust="spacing" textLength="148.4219" x="399.79" y="175.2851">API / Controller Layer</text></g><!--entity Document Processing Orchestrator--><g class="entity" data-qualified-name="Backend .Orchestration . Server Layer..Document Processing Orchestrator" data-source-line="12" id="ent0009"><rect fill="#F1F1F1" height="36.2969" rx="2.5" ry="2.5" style="stroke:#181818;stroke-width:0.5;" width="265.6289" x="532.19" y="248.59"/><text fill="#000000" font-family="sans-serif" font-size="14" lengthAdjust="spacing" textLength="245.6289" x="542.19" y="271.5851">Document Processing Orchestrator</text></g><!--entity AI Integration Module--><g class="entity" data-qualified-name="Backend .Orchestration . Server Layer..AI Integration Module" data-source-line="13" id="ent0010"><rect fill="#F1F1F1" height="36.2969" rx="2.5" ry="2.5" style="stroke:#181818;stroke-width:0.5;" width="170.6572" x="664.67" y="344.89"/><text fill="#000000" font-family="sans-serif" font-size="14" lengthAdjust="spacing" textLength="150.6572" x="674.67" y="367.8851">AI Integration Module</text></g><!--entity Storage Service Interface--><g class="entity" data-qualified-name="Backend .Orchestration . Server Layer..Storage Service Interface" data-source-line="14" id="ent0011"><rect fill="#F1F1F1" height="36.2969" rx="2.5" ry="2.5" style="stroke:#181818;stroke-width:0.5;" width="198.0967" x="650.95" y="441.18"/><text fill="#000000" font-family="sans-serif" font-size="14" lengthAdjust="spacing" textLength="178.0967" x="660.95" y="464.1751">Storage Service Interface</text></g><!--entity Search Engine Module--><g class="entity" data-qualified-name="Backend .Orchestration . Server Layer..Search Engine Module" data-source-line="15" id="ent0012"><rect fill="#F1F1F1" height="36.2969" rx="2.5" ry="2.5" style="stroke:#181818;stroke-width:0.5;" width="176.1943" x="320.9" y="248.59"/><text fill="#000000" font-family="sans-serif" font-size="14" lengthAdjust="spacing" textLength="156.1943" x="330.9" y="271.5851">Search Engine Module</text></g><!--entity Notification Service--><g class="entity" data-qualified-name="Backend .Orchestration . Server Layer..Notification Service" data-source-line="16" id="ent0013"><rect fill="#F1F1F1" height="36.2969" rx="2.5" ry="2.5" style="stroke:#181818;stroke-width:0.5;" width="156.5205" x="472.74" y="344.89"/><text fill="#000000" font-family="sans-serif" font-size="14" lengthAdjust="spacing" textLength="136.5205" x="482.74" y="367.8851">Notification Service</text></g><!--entity Admin & Monitoring Module--><g class="entity" data-qualified-name="Backend .Orchestration . Server Layer..Admin . Monitoring Module" data-source-line="17" id="ent0014"><rect fill="#F1F1F1" height="36.2969" rx="2.5" ry="2.5" style="stroke:#181818;stroke-width:0.5;" width="214.9063" x="657.55" y="152.29"/><text fill="#000000" font-family="sans-serif" font-size="14" lengthAdjust="spacing" textLength="194.9063" x="667.55" y="175.2851">Admin &amp; Monitoring Module</text></g><!--link Document Upload Interface to API / Controller Layer--><g class="link" data-entity-1="ent0003" data-entity-2="ent0008" data-link-type="dependency" data-source-line="21" id="lnk15"><path d="M181.11,77.71 C203.24,85.1 229.35,93.72 253,101.29 C308.07,118.92 365.3692,136.5354 409.9892,150.0954" fill="none" id="Document Upload Interface-to-API / Controller Layer" style="stroke:#181818;stroke-width:1;"/><polygon fill="#181818" points="415.73,151.84,408.2819,145.3959,410.946,150.3862,405.9558,153.0503,415.73,151.84" style="stroke:#181818;stroke-width:1;"/></g><!--link Search & Retrieval Interface to API / Controller Layer--><g class="link" data-entity-1="ent0004" data-entity-2="ent0008" data-link-type="dependency" data-source-line="22" id="lnk16"><path d="M395.1,77.7 C412.64,98.1 437.4975,127.0011 455.0175,147.3711" fill="none" id="Search &amp; Retrieval Interface-to-API / Controller Layer" style="stroke:#181818;stroke-width:1;"/><polygon fill="#181818" points="458.93,151.92,456.0939,142.4883,455.6696,148.1292,450.0287,147.7049,458.93,151.92" style="stroke:#181818;stroke-width:1;"/></g><!--link Results Dashboard / Visualization to API / Controller Layer--><g class="link" data-entity-1="ent0005" data-entity-2="ent0008" data-link-type="dependency" data-source-line="23" id="lnk17"><path d="M622.56,77.7 C589.53,98.1 540.4756,128.3984 507.4756,148.7684" fill="none" id="Results Dashboard / Visualization-to-API / Controller Layer" style="stroke:#181818;stroke-width:1;"/><polygon fill="#181818" points="502.37,151.92,512.1295,150.5964,506.6247,149.2937,507.9274,143.7889,502.37,151.92" style="stroke:#181818;stroke-width:1;"/></g><!--link Notification / Alerts to API / Controller Layer--><g class="link" data-entity-1="ent0006" data-entity-2="ent0008" data-link-type="dependency" data-source-line="24" id="lnk18"><path d="M857.95,77.63 C840.22,86.4 817.5,96.22 796,101.29 C728.43,117.25 708.05,95.54 640,109.29 C594.78,118.43 550.8693,135.2336 517.8093,149.4936" fill="none" id="Notification / Alerts-to-API / Controller Layer" style="stroke:#181818;stroke-width:1;"/><polygon fill="#181818" points="512.3,151.87,522.1483,151.9783,516.8911,149.8897,518.9798,144.6325,512.3,151.87" style="stroke:#181818;stroke-width:1;"/></g><!--link API / Controller Layer to Document Processing Orchestrator--><g class="link" data-entity-1="ent0008" data-entity-2="ent0009" data-link-type="dependency" data-source-line="27" id="lnk19"><path d="M509.48,188.96 C543.68,205.84 589.76,228.5938 624.01,245.5038" fill="none" id="API / Controller Layer-to-Document Processing Orchestrator" style="stroke:#181818;stroke-width:1;"/><polygon fill="#181818" points="629.39,248.16,623.0908,240.589,624.9067,245.9465,619.5492,247.7623,629.39,248.16" style="stroke:#181818;stroke-width:1;"/></g><!--link Document Processing Orchestrator to AI Integration Module--><g class="link" data-entity-1="ent0009" data-entity-2="ent0010" data-link-type="dependency" data-source-line="28" id="lnk20"><path d="M680.59,285.03 C695.83,301.94 714.9036,323.0926 730.2036,340.0726" fill="none" id="Document Processing Orchestrator-to-AI Integration Module" style="stroke:#181818;stroke-width:1;"/><polygon fill="#181818" points="734.22,344.53,731.167,335.1663,730.873,340.8155,725.2238,340.5215,734.22,344.53" style="stroke:#181818;stroke-width:1;"/></g><!--link AI Integration Module to Storage Service Interface--><g class="link" data-entity-1="ent0010" data-entity-2="ent0011" data-link-type="dependency" data-source-line="29" id="lnk21"><path d="M750,381.33 C750,398.24 750,417.85 750,434.83" fill="none" id="AI Integration Module-to-Storage Service Interface" style="stroke:#181818;stroke-width:1;"/><polygon fill="#181818" points="750,440.83,754,431.83,750,435.83,746,431.83,750,440.83" style="stroke:#181818;stroke-width:1;"/></g><!--link Document Processing Orchestrator to Notification Service--><g class="link" data-entity-1="ent0009" data-entity-2="ent0013" data-link-type="dependency" data-source-line="30" id="lnk22"><path d="M643.82,285.25 C623.35,302.19 597.1241,323.8867 576.6841,340.7867" fill="none" id="Document Processing Orchestrator-to-Notification Service" style="stroke:#181818;stroke-width:1;"/><polygon fill="#181818" points="572.06,344.61,581.545,341.9578,575.9134,341.4239,576.4473,335.7923,572.06,344.61" style="stroke:#181818;stroke-width:1;"/></g><!--link API / Controller Layer to Search Engine Module--><g class="link" data-entity-1="ent0008" data-entity-2="ent0012" data-link-type="dependency" data-source-line="33" id="lnk23"><path d="M462.08,188.74 C450.42,205.64 436.1744,226.3093 424.4744,243.2893" fill="none" id="API / Controller Layer-to-Search Engine Module" style="stroke:#181818;stroke-width:1;"/><polygon fill="#181818" points="421.07,248.23,429.4703,243.0885,423.907,244.1128,422.8827,238.5494,421.07,248.23" style="stroke:#181818;stroke-width:1;"/></g><!--link Search Engine Module to Storage Service Interface--><g class="link" data-entity-1="ent0012" data-entity-2="ent0011" data-link-type="dependency" data-source-line="34" id="lnk24"><path d="M411.16,285.12 C415.19,310.11 426.26,355.94 455,381.18 C508.7,428.34 581.8403,446.5261 644.6203,453.8361" fill="none" id="Search Engine Module-to-Storage Service Interface" style="stroke:#181818;stroke-width:1;"/><polygon fill="#181818" points="650.58,454.53,642.103,449.5159,645.6136,453.9517,641.1778,457.4622,650.58,454.53" style="stroke:#181818;stroke-width:1;"/></g><!--link Admin & Monitoring Module to Document Processing Orchestrator--><g class="link" data-entity-1="ent0014" data-entity-2="ent0009" data-link-type="dependency" data-source-line="37" id="lnk25"><path d="M746.66,188.74 C728.73,205.64 705.9356,227.134 687.9256,244.114" fill="none" id="Admin &amp; Monitoring Module-to-Document Processing Orchestrator" style="stroke:#181818;stroke-width:1;"/><polygon fill="#181818" points="683.56,248.23,692.8524,244.9665,687.198,244.8,687.3645,239.1456,683.56,248.23" style="stroke:#181818;stroke-width:1;"/></g><!--link Admin & Monitoring Module to AI Integration Module--><g class="link" data-entity-1="ent0014" data-entity-2="ent0010" data-link-type="dependency" data-source-line="38" id="lnk26"><path d="M781.72,188.84 C800.76,210.85 827.7,250.11 815,284.89 C806.29,308.74 791.002,326.2538 775.562,340.4838" fill="none" id="Admin &amp; Monitoring Module-to-AI Integration Module" style="stroke:#181818;stroke-width:1;"/><polygon fill="#181818" points="771.15,344.55,780.4788,341.392,774.8267,341.1615,775.0572,335.5093,771.15,344.55" style="stroke:#181818;stroke-width:1;"/></g><!--link Admin & Monitoring Module to Storage Service Interface--><g class="link" data-entity-1="ent0014" data-entity-2="ent0011" data-link-type="dependency" data-source-line="39" id="lnk27"><path d="M782.68,188.92 C817.29,225.35 887.72,311.79 853,381.18 C839.6,407.96 817.2599,424.9352 793.9999,437.8052" fill="none" id="Admin &amp; Monitoring Module-to-Storage Service Interface" style="stroke:#181818;stroke-width:1;"/><polygon fill="#181818" points="788.75,440.71,798.5615,439.8527,793.1249,438.2893,794.6883,432.8528,788.75,440.71" style="stroke:#181818;stroke-width:1;"/></g><?plantuml-src ZLBBJiCm4BpxArOSU1og_W5IeLIAHA5gL2we1-DiKwkE7TbEKK5S-G0-aIzXsoIqXIHkJj5wPcTtPjrAwfnRde4mMMuqQX_xZKAmA3pNgKB6SYvMF4Ku6rcZFUe4BcVHrHcyCw3lUMX4aH4FPhaoF868C7R11SwX1CJ8hLZ2EKpHMubhhWum9MIAhb3UmP2xvOlXDe4-F4bNS2NVk9T6LxW7u-L2Ybs980E5rhiv-pWOyeP-TZC-aYWwRsjmZ7QD5kxv1kr--i4aehTRMimQfUht-P_L9jO8T4xg5FPjJGqRHBk5qafgR992rPl51DlEjLMN0lzjNfbpfrEfyPXwj6p5hnMJJ6foT6oq987jN3MLlBY0twI-Fx-WSeHr9TNhNRTxqPrWW1kEDj2WEVDk4bbm7Fz8cLVM1YzxXSCEGwgfck-XfLvoEkxaLDdcUo4hglXEyA3v6flBmRb9kRpJ_i6TiexRFJc7K8lM00AyzcL-0000?></g></svg>