<?plantuml 1.2026.1beta5?><svg xmlns="http://www.w3.org/2000/svg" xmlns:xlink="http://www.w3.org/1999/xlink" contentStyleType="text/css" data-diagram-type="DESCRIPTION" height="666px" preserveAspectRatio="none" style="width:1105px;height:666px;background:#FFFFFF;" version="1.1" viewBox="0 0 1105 666" width="1105px" zoomAndPan="magnify"><defs/><g><!--cluster AI-Powered Document Intelligence Service--><g class="cluster" data-qualified-name="AI-Powered Document Intelligence Service" data-source-line="6" id="ent0004"><path d="M8.5,121.8 L346.1904,121.8 A3.75,3.75 0 0 1 348.6904,124.3 L355.6904,144.0969 L851.5,144.0969 A2.5,2.5 0 0 1 854,146.5969 L854,656.78 A2.5,2.5 0 0 1 851.5,659.28 L8.5,659.28 A2.5,2.5 0 0 1 6,656.78 L6,124.3 A2.5,2.5 0 0 1 8.5,121.8" fill="none" style="stroke:#000000;stroke-width:1.5;"/><line style="stroke:#000000;stroke-width:1.5;" x1="6" x2="355.6904" y1="144.0969" y2="144.0969"/><text fill="#000000" font-family="sans-serif" font-size="14" font-weight="bold" lengthAdjust="spacing" textLength="336.6904" x="10" y="136.7951">AI-Powered Document Intelligence Service</text></g><!--entity Upload--><g class="entity" data-qualified-name="AI-Powered Document Intelligence Service.Upload" data-source-line="8" id="ent0005"><rect fill="#F1F1F1" height="46.2969" rx="2.5" ry="2.5" style="stroke:#181818;stroke-width:0.5;" width="233.1631" x="604.42" y="156.8"/><rect fill="#F1F1F1" height="10" style="stroke:#181818;stroke-width:0.5;" width="15" x="817.5831" y="161.8"/><rect fill="#F1F1F1" height="2" style="stroke:#181818;stroke-width:0.5;" width="4" x="815.5831" y="163.8"/><rect fill="#F1F1F1" height="2" style="stroke:#181818;stroke-width:0.5;" width="4" x="815.5831" y="167.8"/><text fill="#000000" font-family="sans-serif" font-size="14" lengthAdjust="spacing" textLength="193.1631" x="619.42" y="189.7951">Document Upload Interface</text></g><!--entity Search--><g class="entity" data-qualified-name="AI-Powered Document Intelligence Service.Search" data-source-line="9" id="ent0006"><rect fill="#F1F1F1" height="46.2969" rx="2.5" ry="2.5" style="stroke:#181818;stroke-width:0.5;" width="238.1943" x="21.9" y="156.8"/><rect fill="#F1F1F1" height="10" style="stroke:#181818;stroke-width:0.5;" width="15" x="240.0943" y="161.8"/><rect fill="#F1F1F1" height="2" style="stroke:#181818;stroke-width:0.5;" width="4" x="238.0943" y="163.8"/><rect fill="#F1F1F1" height="2" style="stroke:#181818;stroke-width:0.5;" width="4" x="238.0943" y="167.8"/><text fill="#000000" font-family="sans-serif" font-size="14" lengthAdjust="spacing" textLength="198.1943" x="36.9" y="189.7951">Search &amp; Retrieval Interface</text></g><!--entity DashboardUI--><g class="entity" data-qualified-name="AI-Powered Document Intelligence Service.DashboardUI" data-source-line="10" id="ent0007"><rect fill="#F1F1F1" height="46.2969" rx="2.5" ry="2.5" style="stroke:#181818;stroke-width:0.5;" width="274.1855" x="294.91" y="156.8"/><rect fill="#F1F1F1" height="10" style="stroke:#181818;stroke-width:0.5;" width="15" x="549.0955" y="161.8"/><rect fill="#F1F1F1" height="2" style="stroke:#181818;stroke-width:0.5;" width="4" x="547.0955" y="163.8"/><rect fill="#F1F1F1" height="2" style="stroke:#181818;stroke-width:0.5;" width="4" x="547.0955" y="167.8"/><text fill="#000000" font-family="sans-serif" font-size="14" lengthAdjust="spacing" textLength="234.1855" x="309.91" y="189.7951">Results Dashboard / Visualization</text></g><!--entity NotificationUI--><g class="entity" data-qualified-name="AI-Powered Document Intelligence Service.NotificationUI" data-source-line="11" id="ent0008"><rect fill="#F1F1F1" height="46.2969" rx="2.5" ry="2.5" style="stroke:#181818;stroke-width:0.5;" width="174.5654" x="215.72" y="596.98"/><rect fill="#F1F1F1" height="10" style="stroke:#181818;stroke-width:0.5;" width="15" x="370.2854" y="601.98"/><rect fill="#F1F1F1" height="2" style="stroke:#181818;stroke-width:0.5;" width="4" x="368.2854" y="603.98"/><rect fill="#F1F1F1" height="2" style="stroke:#181818;stroke-width:0.5;" width="4" x="368.2854" y="607.98"/><text fill="#000000" font-family="sans-serif" font-size="14" lengthAdjust="spacing" textLength="134.5654" x="230.72" y="629.9751">Notification / Alerts</text></g><!--entity API--><g class="entity" data-qualified-name="AI-Powered Document Intelligence Service.API" data-source-line="13" id="ent0009"><rect fill="#F1F1F1" height="46.2969" rx="2.5" ry="2.5" style="stroke:#181818;stroke-width:0.5;" width="188.4219" x="210.79" y="278.09"/><rect fill="#F1F1F1" height="10" style="stroke:#181818;stroke-width:0.5;" width="15" x="379.2119" y="283.09"/><rect fill="#F1F1F1" height="2" style="stroke:#181818;stroke-width:0.5;" width="4" x="377.2119" y="285.09"/><rect fill="#F1F1F1" height="2" style="stroke:#181818;stroke-width:0.5;" width="4" x="377.2119" y="289.09"/><text fill="#000000" font-family="sans-serif" font-size="14" lengthAdjust="spacing" textLength="148.4219" x="225.79" y="311.0851">API / Controller Layer</text></g><!--entity Orchestrator--><g class="entity" data-qualified-name="AI-Powered Document Intelligence Service.Orchestrator" data-source-line="14" id="ent0010"><rect fill="#F1F1F1" height="46.2969" rx="2.5" ry="2.5" style="stroke:#181818;stroke-width:0.5;" width="285.6289" x="438.19" y="384.39"/><rect fill="#F1F1F1" height="10" style="stroke:#181818;stroke-width:0.5;" width="15" x="703.8189" y="389.39"/><rect fill="#F1F1F1" height="2" style="stroke:#181818;stroke-width:0.5;" width="4" x="701.8189" y="391.39"/><rect fill="#F1F1F1" height="2" style="stroke:#181818;stroke-width:0.5;" width="4" x="701.8189" y="395.39"/><text fill="#000000" font-family="sans-serif" font-size="14" lengthAdjust="spacing" textLength="245.6289" x="453.19" y="417.3851">Document Processing Orchestrator</text></g><!--entity AI--><g class="entity" data-qualified-name="AI-Powered Document Intelligence Service.AI" data-source-line="15" id="ent0011"><rect fill="#F1F1F1" height="46.2969" rx="2.5" ry="2.5" style="stroke:#181818;stroke-width:0.5;" width="190.6572" x="567.67" y="490.69"/><rect fill="#F1F1F1" height="10" style="stroke:#181818;stroke-width:0.5;" width="15" x="738.3272" y="495.69"/><rect fill="#F1F1F1" height="2" style="stroke:#181818;stroke-width:0.5;" width="4" x="736.3272" y="497.69"/><rect fill="#F1F1F1" height="2" style="stroke:#181818;stroke-width:0.5;" width="4" x="736.3272" y="501.69"/><text fill="#000000" font-family="sans-serif" font-size="14" lengthAdjust="spacing" textLength="150.6572" x="582.67" y="523.6851">AI Integration Module</text></g><!--entity Storage--><g class="entity" data-qualified-name="AI-Powered Document Intelligence Service.Storage" data-source-line="16" id="ent0012"><rect fill="#F1F1F1" height="46.2969" rx="2.5" ry="2.5" style="stroke:#181818;stroke-width:0.5;" width="218.0967" x="553.95" y="596.98"/><rect fill="#F1F1F1" height="10" style="stroke:#181818;stroke-width:0.5;" width="15" x="752.0467" y="601.98"/><rect fill="#F1F1F1" height="2" style="stroke:#181818;stroke-width:0.5;" width="4" x="750.0467" y="603.98"/><rect fill="#F1F1F1" height="2" style="stroke:#181818;stroke-width:0.5;" width="4" x="750.0467" y="607.98"/><text fill="#000000" font-family="sans-serif" font-size="14" lengthAdjust="spacing" textLength="178.0967" x="568.95" y="629.9751">Storage Service Interface</text></g><!--entity SearchEngine--><g class="entity" data-qualified-name="AI-Powered Document Intelligence Service.SearchEngine" data-source-line="17" id="ent0013"><rect fill="#F1F1F1" height="46.2969" rx="2.5" ry="2.5" style="stroke:#181818;stroke-width:0.5;" width="196.1943" x="206.9" y="384.39"/><rect fill="#F1F1F1" height="10" style="stroke:#181818;stroke-width:0.5;" width="15" x="383.0943" y="389.39"/><rect fill="#F1F1F1" height="2" style="stroke:#181818;stroke-width:0.5;" width="4" x="381.0943" y="391.39"/><rect fill="#F1F1F1" height="2" style="stroke:#181818;stroke-width:0.5;" width="4" x="381.0943" y="395.39"/><text fill="#000000" font-family="sans-serif" font-size="14" lengthAdjust="spacing" textLength="156.1943" x="221.9" y="417.3851">Search Engine Module</text></g><!--entity NotifyService--><g class="entity" data-qualified-name="AI-Powered Document Intelligence Service.NotifyService" data-source-line="18" id="ent0014"><rect fill="#F1F1F1" height="46.2969" rx="2.5" ry="2.5" style="stroke:#181818;stroke-width:0.5;" width="176.5205" x="351.74" y="490.69"/><rect fill="#F1F1F1" height="10" style="stroke:#181818;stroke-width:0.5;" width="15" x="508.2605" y="495.69"/><rect fill="#F1F1F1" height="2" style="stroke:#181818;stroke-width:0.5;" width="4" x="506.2605" y="497.69"/><rect fill="#F1F1F1" height="2" style="stroke:#181818;stroke-width:0.5;" width="4" x="506.2605" y="501.69"/><text fill="#000000" font-family="sans-serif" font-size="14" lengthAdjust="spacing" textLength="136.5205" x="366.74" y="523.6851">Notification Service</text></g><!--entity AdminModule--><g class="entity" data-qualified-name="AI-Powered Document Intelligence Service.AdminModule" data-source-line="19" id="ent0015"><rect fill="#F1F1F1" height="46.2969" rx="2.5" ry="2.5" style="stroke:#181818;stroke-width:0.5;" width="234.9063" x="603.55" y="278.09"/><rect fill="#F1F1F1" height="10" style="stroke:#181818;stroke-width:0.5;" width="15" x="818.4563" y="283.09"/><rect fill="#F1F1F1" height="2" style="stroke:#181818;stroke-width:0.5;" width="4" x="816.4563" y="285.09"/><rect fill="#F1F1F1" height="2" style="stroke:#181818;stroke-width:0.5;" width="4" x="816.4563" y="289.09"/><text fill="#000000" font-family="sans-serif" font-size="14" lengthAdjust="spacing" textLength="194.9063" x="618.55" y="311.0851">Admin &amp; Monitoring Module</text></g><!--entity User--><g class="entity" data-qualified-name="User" data-source-line="3" id="ent0002"><ellipse cx="432.0029" cy="14" fill="#F1F1F1" rx="8" ry="8" style="stroke:#181818;stroke-width:0.5;"/><path d="M432.0029,22 L432.0029,49 M419.0029,30 L445.0029,30 M432.0029,49 L419.0029,64 M432.0029,49 L445.0029,64" fill="none" style="stroke:#181818;stroke-width:0.5;"/><text fill="#000000" font-family="sans-serif" font-size="14" lengthAdjust="spacing" textLength="62.9658" x="400.52" y="78.4951">End User</text></g><!--entity Admin--><g class="entity" data-qualified-name="Admin" data-source-line="4" id="ent0003"><ellipse cx="920.0013" cy="150.3" fill="#F1F1F1" rx="8" ry="8" style="stroke:#181818;stroke-width:0.5;"/><path d="M920.0013,158.3 L920.0013,185.3 M907.0013,166.3 L933.0013,166.3 M920.0013,185.3 L907.0013,200.3 M920.0013,185.3 L933.0013,200.3" fill="none" style="stroke:#181818;stroke-width:0.5;"/><text fill="#000000" font-family="sans-serif" font-size="14" lengthAdjust="spacing" textLength="95.6826" x="872.16" y="214.7951">Administrator</text></g><!--link User to Upload--><g class="link" data-entity-1="ent0002" data-entity-2="ent0005" data-link-type="dependency" data-source-line="23" id="lnk16"><path d="M463.75,44.28 C538.83,44.28 721,44.28 721,44.28 C721,44.28 721,111.44 721,150.31" fill="none" id="User-to-Upload" style="stroke:#181818;stroke-width:1;"/><polygon fill="#181818" points="721,156.31,725,147.31,721,151.31,717,147.31,721,156.31" style="stroke:#181818;stroke-width:1;"/><text fill="#000000" font-family="sans-serif" font-size="13" lengthAdjust="spacing" textLength="115.2734" x="532.39" y="40.3469">Upload document</text></g><!--link User to Search--><g class="link" data-entity-1="ent0002" data-entity-2="ent0006" data-link-type="dependency" data-source-line="24" id="lnk17"><path d="M400.03,44.28 C324.43,44.28 141,44.28 141,44.28 C141,44.28 141,111.44 141,150.31" fill="none" id="User-to-Search" style="stroke:#181818;stroke-width:1;"/><polygon fill="#181818" points="141,156.31,145,147.31,141,151.31,137,147.31,141,156.31" style="stroke:#181818;stroke-width:1;"/><text fill="#000000" font-family="sans-serif" font-size="13" lengthAdjust="spacing" textLength="135.3765" x="78.5" y="40.3469">Submit search query</text></g><!--link User to DashboardUI--><g class="link" data-entity-1="ent0002" data-entity-2="ent0007" data-link-type="dependency" data-source-line="25" id="lnk18"><path d="M432,81.98 C432,105.91 432,129.96 432,150.43" fill="none" id="User-to-DashboardUI" style="stroke:#181818;stroke-width:1;"/><polygon fill="#181818" points="432,156.43,436,147.43,432,151.43,428,147.43,432,156.43" style="stroke:#181818;stroke-width:1;"/><text fill="#000000" font-family="sans-serif" font-size="13" lengthAdjust="spacing" textLength="79.1045" x="352" y="115.2669">View results</text></g><!--link Upload to API--><g class="link" data-entity-1="ent0005" data-entity-2="ent0009" data-link-type="dependency" data-source-line="28" id="lnk19"><path d="M603.93,180.28 C593.23,180.28 586.32,180.28 586.32,180.28 C586.32,180.28 586.32,294.28 586.32,294.28 C586.32,294.28 487.18,294.28 405.46,294.28" fill="none" id="Upload-to-API" style="stroke:#181818;stroke-width:1;"/><polygon fill="#181818" points="399.46,294.28,408.46,298.28,404.46,294.28,408.46,290.28,399.46,294.28" style="stroke:#181818;stroke-width:1;"/></g><!--link Search to API--><g class="link" data-entity-1="ent0006" data-entity-2="ent0009" data-link-type="dependency" data-source-line="29" id="lnk20"><path d="M235.44,203.33 C235.44,224.81 235.44,250.47 235.44,271.93" fill="none" id="Search-to-API" style="stroke:#181818;stroke-width:1;"/><polygon fill="#181818" points="235.44,277.93,239.44,268.93,235.44,272.93,231.44,268.93,235.44,277.93" style="stroke:#181818;stroke-width:1;"/></g><!--link DashboardUI to API--><g class="link" data-entity-1="ent0007" data-entity-2="ent0009" data-link-type="dependency" data-source-line="30" id="lnk21"><path d="M347.06,203.33 C347.06,224.81 347.06,250.47 347.06,271.93" fill="none" id="DashboardUI-to-API" style="stroke:#181818;stroke-width:1;"/><polygon fill="#181818" points="347.06,277.93,351.06,268.93,347.06,272.93,343.06,268.93,347.06,277.93" style="stroke:#181818;stroke-width:1;"/></g><!--link NotificationUI to API--><g class="link" data-entity-1="ent0008" data-entity-2="ent0009" data-link-type="dependency" data-source-line="31" id="lnk22"><path d="M215.33,620.28 C166.08,620.28 114.4,620.28 114.4,620.28 C114.4,620.28 114.4,301.28 114.4,301.28 C114.4,301.28 156.61,301.28 204.54,301.28" fill="none" id="NotificationUI-to-API" style="stroke:#181818;stroke-width:1;"/><polygon fill="#181818" points="210.54,301.28,201.54,297.28,205.54,301.28,201.54,305.28,210.54,301.28" style="stroke:#181818;stroke-width:1;"/></g><!--link API to Orchestrator--><g class="link" data-entity-1="ent0009" data-entity-2="ent0010" data-link-type="dependency" data-source-line="34" id="lnk23"><path d="M399.67,309.28 C450.83,309.28 503.64,309.28 503.64,309.28 C503.64,309.28 503.64,349.2 503.64,378.25" fill="none" id="API-to-Orchestrator" style="stroke:#181818;stroke-width:1;"/><polygon fill="#181818" points="503.64,384.25,507.64,375.25,503.64,379.25,499.64,375.25,503.64,384.25" style="stroke:#181818;stroke-width:1;"/><text fill="#000000" font-family="sans-serif" font-size="13" lengthAdjust="spacing" textLength="113.5786" x="461.39" y="322.3469">Forward requests</text></g><!--link Orchestrator to AI--><g class="link" data-entity-1="ent0010" data-entity-2="ent0011" data-link-type="dependency" data-source-line="35" id="lnk24"><path d="M645.74,431.13 C645.74,448.74 645.74,466.71 645.74,484.31" fill="none" id="Orchestrator-to-AI" style="stroke:#181818;stroke-width:1;"/><polygon fill="#181818" points="645.74,490.31,649.74,481.31,645.74,485.31,641.74,481.31,645.74,490.31" style="stroke:#181818;stroke-width:1;"/><text fill="#000000" font-family="sans-serif" font-size="13" lengthAdjust="spacing" textLength="120.3706" x="524.74" y="456.7869">Trigger AI analysis</text></g><!--link AI to Storage--><g class="link" data-entity-1="ent0011" data-entity-2="ent0012" data-link-type="dependency" data-source-line="36" id="lnk25"><path d="M663,537.43 C663,555.04 663,573.01 663,590.61" fill="none" id="AI-to-Storage" style="stroke:#181818;stroke-width:1;"/><polygon fill="#181818" points="663,596.61,667,587.61,663,591.61,659,587.61,663,596.61" style="stroke:#181818;stroke-width:1;"/><text fill="#000000" font-family="sans-serif" font-size="13" lengthAdjust="spacing" textLength="105.2886" x="557" y="563.0869">Store AI outputs</text></g><!--link Orchestrator to NotifyService--><g class="link" data-entity-1="ent0010" data-entity-2="ent0014" data-link-type="dependency" data-source-line="37" id="lnk26"><path d="M483.22,431.13 C483.22,448.74 483.22,466.71 483.22,484.31" fill="none" id="Orchestrator-to-NotifyService" style="stroke:#181818;stroke-width:1;"/><polygon fill="#181818" points="483.22,490.31,487.22,481.31,483.22,485.31,479.22,481.31,483.22,490.31" style="stroke:#181818;stroke-width:1;"/><text fill="#000000" font-family="sans-serif" font-size="13" lengthAdjust="spacing" textLength="116.7524" x="366.22" y="456.7869">Send notifications</text></g><!--link API to SearchEngine--><g class="link" data-entity-1="ent0009" data-entity-2="ent0013" data-link-type="dependency" data-source-line="40" id="lnk27"><path d="M273.6,324.83 C273.6,342.45 273.6,360.41 273.6,378.01" fill="none" id="API-to-SearchEngine" style="stroke:#181818;stroke-width:1;"/><polygon fill="#181818" points="273.6,384.01,277.6,375.01,273.6,379.01,269.6,375.01,273.6,384.01" style="stroke:#181818;stroke-width:1;"/><text fill="#000000" font-family="sans-serif" font-size="13" lengthAdjust="spacing" textLength="138.271" x="134.6" y="350.4869">Route search queries</text></g><!--link SearchEngine to API--><g class="link" data-entity-1="ent0013" data-entity-2="ent0009" data-link-type="dependency" data-source-line="42" id="lnk29"><path d="M336.4,383.95 C336.4,366.33 336.4,348.37 336.4,330.77" fill="none" id="SearchEngine-to-API" style="stroke:#181818;stroke-width:1;"/><polygon fill="#181818" points="336.4,324.77,332.4,333.77,336.4,329.77,340.4,333.77,336.4,324.77" style="stroke:#181818;stroke-width:1;"/><text fill="#000000" font-family="sans-serif" font-size="13" lengthAdjust="spacing" textLength="91.9204" x="337.4" y="350.4269">Return results</text></g><!--link SearchEngine to Storage--><g class="link" data-entity-1="ent0013" data-entity-2="ent0012" data-link-type="dependency" data-source-line="41" id="lnk28"><path d="M377.42,430.95 C377.42,445.44 377.42,461.28 377.42,461.28 C377.42,461.28 560.81,461.28 560.81,461.28 C560.81,461.28 560.81,546.51 560.81,590.69" fill="none" id="SearchEngine-to-Storage" style="stroke:#181818;stroke-width:1;"/><polygon fill="#181818" points="560.81,596.69,564.81,587.69,560.81,591.69,556.81,587.69,560.81,596.69" style="stroke:#181818;stroke-width:1;"/><text fill="#000000" font-family="sans-serif" font-size="13" lengthAdjust="spacing" textLength="131.2695" x="389.66" y="474.3469">Retrieve documents</text></g><!--link Admin to AdminModule--><g class="link" data-entity-1="ent0003" data-entity-2="ent0015" data-link-type="dependency" data-source-line="45" id="lnk30"><path d="M920,218.34 C920,253.88 920,301.28 920,301.28 C920,301.28 887.74,301.28 844.77,301.28" fill="none" id="Admin-to-AdminModule" style="stroke:#181818;stroke-width:1;"/><polygon fill="#181818" points="838.77,301.28,847.77,305.28,843.77,301.28,847.77,297.28,838.77,301.28" style="stroke:#181818;stroke-width:1;"/><text fill="#000000" font-family="sans-serif" font-size="13" lengthAdjust="spacing" textLength="176.5029" x="921" y="296.4869">Review flagged documents</text></g><!--link AdminModule to Orchestrator--><g class="link" data-entity-1="ent0015" data-entity-2="ent0010" data-link-type="dependency" data-source-line="46" id="lnk31"><path d="M663.68,324.83 C663.68,342.45 663.68,360.41 663.68,378.01" fill="none" id="AdminModule-to-Orchestrator" style="stroke:#181818;stroke-width:1;"/><polygon fill="#181818" points="663.68,384.01,667.68,375.01,663.68,379.01,659.68,375.01,663.68,384.01" style="stroke:#181818;stroke-width:1;"/><text fill="#000000" font-family="sans-serif" font-size="13" lengthAdjust="spacing" textLength="109.1099" x="553.68" y="350.4869">Trigger workflow</text></g><!--link AdminModule to AI--><g class="link" data-entity-1="ent0015" data-entity-2="ent0011" data-link-type="dependency" data-source-line="47" id="lnk32"><path d="M741.07,324.8 C741.07,365.78 741.07,443.67 741.07,484.49" fill="none" id="AdminModule-to-AI" style="stroke:#181818;stroke-width:1;"/><polygon fill="#181818" points="741.07,490.49,745.07,481.49,741.07,485.49,737.07,481.49,741.07,490.49" style="stroke:#181818;stroke-width:1;"/><text fill="#000000" font-family="sans-serif" font-size="13" lengthAdjust="spacing" textLength="190.4805" x="742.07" y="403.7169">Model monitoring / retraining</text></g><!--link AdminModule to Storage--><g class="link" data-entity-1="ent0015" data-entity-2="ent0012" data-link-type="dependency" data-source-line="48" id="lnk33"><path d="M765.19,324.69 C765.19,383.66 765.19,531.64 765.19,590.65" fill="none" id="AdminModule-to-Storage" style="stroke:#181818;stroke-width:1;"/><polygon fill="#181818" points="765.19,596.65,769.19,587.65,765.19,591.65,761.19,587.65,765.19,596.65" style="stroke:#181818;stroke-width:1;"/><text fill="#000000" font-family="sans-serif" font-size="13" lengthAdjust="spacing" textLength="138.252" x="766.19" y="456.7369">Access stored results</text></g><!--link NotifyService to NotificationUI--><g class="link" data-entity-1="ent0014" data-entity-2="ent0008" data-link-type="dependency" data-source-line="51" id="lnk34"><path d="M371.01,537.43 C371.01,555.04 371.01,573.01 371.01,590.61" fill="none" id="NotifyService-to-NotificationUI" style="stroke:#181818;stroke-width:1;"/><polygon fill="#181818" points="371.01,596.61,375.01,587.61,371.01,591.61,367.01,587.61,371.01,596.61" style="stroke:#181818;stroke-width:1;"/><text fill="#000000" font-family="sans-serif" font-size="13" lengthAdjust="spacing" textLength="73.6646" x="297.01" y="563.0869">Send alerts</text></g><?plantuml-src RLHBZXen4Dtx52KMoGhDdaKaafcHa6OI164sKHQcksWiZ4tARX29iiq1SiIS9ELFTxiHh5nLhxxlqUwWp4cIF89M1ltrX639xwqGilAMOF9aQjWuf0b85nzTO5uVbL7EasGpHgD7Y9Ei3h91HYocItj1mXeURTKUqNXO68zQgmPDXR16EgiA9_1B2E3VjnwsEMahwuYcdQpmU-mUdGcvHadL7jx12ZqfF4jz0qw015wXQxLty2ZTVcibrV00RygrKgkVqYjhOaOVtInIscVhrKvL4S4PSutaNOIM4KOd-7ovODGdQpnPpLXuaLUaYEVGpO9BiXKwfqm3NtXEp7UCwDAHIo_YTWsbMLvjtUgqvZmNNZCs73sVzFOOAJewtPDfcF6oLWea_vqBvDB30QxPasSCx3CXhzOeRXSsA-SCqMIBtqAyZr825QPaFN5v9w9dEltGaJ_h7dK-se38AynWtMwFoeDBzeyMwJgW2a8P-gRm0fIK40Pu9cOAMTt__lo5ZwnPVelSCMG7pdAVpYmBThwn57etDyWruJHGlTFs8e9E0goacUTxjdG9qYJaDHpFE8h7kc6DhwIQXXTaGngfhquvCKy5EmtCuWi3nBR-rDwhDI8mP8H9JR5Bl57UVpHsgH9EN74BB0bGwCG8Cnuj_r-nP_KEEhIAo9PCILcIs0CSUuc9v8f9Wy9YyZdmlTEIhrKNpKhO7HQwyrui7TBQD_X80jkeYp5u9kAz97yGkvcAb67vUHMK02xGKvURbIfoi6NbWBVGXi_jcAcUkq5ocJmPFq__0G00?></g></svg>