<?plantuml 1.2026.1beta5?><svg xmlns="http://www.w3.org/2000/svg" xmlns:xlink="http://www.w3.org/1999/xlink" contentStyleType="text/css" data-diagram-type="SEQUENCE" height="689px" preserveAspectRatio="none" style="width:778px;height:689px;background:#FFFFFF;" version="1.1" viewBox="0 0 778 689" width="778px" zoomAndPan="magnify"><defs/><g><g class="participant-lifeline" data-entity-uid="part1" data-qualified-name="EndUser" id="part1-lifeline"><g><title>End User</title><rect fill="#000000" fill-opacity="0.00000" height="526.9922" width="8" x="35.4829" y="81.2969"/><line style="stroke:#181818;stroke-width:0.5;stroke-dasharray:5,5;" x1="39" x2="39" y1="81.2969" y2="608.2891"/></g></g><g class="participant-lifeline" data-entity-uid="part2" data-qualified-name="Admin" id="part2-lifeline"><g><title>Administrator</title><rect fill="#000000" fill-opacity="0.00000" height="526.9922" width="8" x="130.8071" y="81.2969"/><line style="stroke:#181818;stroke-width:0.5;stroke-dasharray:5,5;" x1="133.9658" x2="133.9658" y1="81.2969" y2="608.2891"/></g></g><g class="participant-lifeline" data-entity-uid="part3" data-qualified-name="AI" id="part3-lifeline"><g><title>AI Engine</title><rect fill="#000000" fill-opacity="0.00000" height="526.9922" width="8" x="418.8237" y="81.2969"/><line style="stroke:#181818;stroke-width:0.5;stroke-dasharray:5,5;" x1="422.7549" x2="422.7549" y1="81.2969" y2="608.2891"/></g></g><g class="participant-lifeline" data-entity-uid="part4" data-qualified-name="Storage" id="part4-lifeline"><g><title>Storage Service</title><rect fill="#000000" fill-opacity="0.00000" height="526.9922" width="8" x="699.6309" y="81.2969"/><line style="stroke:#181818;stroke-width:0.5;stroke-dasharray:5,5;" x1="703.147" x2="703.147" y1="81.2969" y2="608.2891"/></g></g><g class="participant participant-head" data-entity-uid="part1" data-qualified-name="EndUser" id="part1-head"><text fill="#000000" font-family="sans-serif" font-size="14" lengthAdjust="spacing" textLength="62.9658" x="5" y="77.9951">End User</text><ellipse cx="39.4829" cy="13.5" fill="#E2E2F0" rx="8" ry="8" style="stroke:#181818;stroke-width:0.5;"/><path d="M39.4829,21.5 L39.4829,48.5 M26.4829,29.5 L52.4829,29.5 M39.4829,48.5 L26.4829,63.5 M39.4829,48.5 L52.4829,63.5" fill="none" style="stroke:#181818;stroke-width:0.5;"/></g><g class="participant participant-tail" data-entity-uid="part1" data-qualified-name="EndUser" id="part1-tail"><text fill="#000000" font-family="sans-serif" font-size="14" lengthAdjust="spacing" textLength="62.9658" x="5" y="620.2842">End User</text><ellipse cx="39.4829" cy="632.0859" fill="#E2E2F0" rx="8" ry="8" style="stroke:#181818;stroke-width:0.5;"/><path d="M39.4829,640.0859 L39.4829,667.0859 M26.4829,648.0859 L52.4829,648.0859 M39.4829,667.0859 L26.4829,682.0859 M39.4829,667.0859 L52.4829,682.0859" fill="none" style="stroke:#181818;stroke-width:0.5;"/></g><g class="participant participant-head" data-entity-uid="part2" data-qualified-name="Admin" id="part2-head"><text fill="#000000" font-family="sans-serif" font-size="14" lengthAdjust="spacing" textLength="95.6826" x="83.9658" y="77.9951">Administrator</text><ellipse cx="134.8071" cy="13.5" fill="#E2E2F0" rx="8" ry="8" style="stroke:#181818;stroke-width:0.5;"/><path d="M134.8071,21.5 L134.8071,48.5 M121.8071,29.5 L147.8071,29.5 M134.8071,48.5 L121.8071,63.5 M134.8071,48.5 L147.8071,63.5" fill="none" style="stroke:#181818;stroke-width:0.5;"/></g><g class="participant participant-tail" data-entity-uid="part2" data-qualified-name="Admin" id="part2-tail"><text fill="#000000" font-family="sans-serif" font-size="14" lengthAdjust="spacing" textLength="95.6826" x="83.9658" y="620.2842">Administrator</text><ellipse cx="134.8071" cy="632.0859" fill="#E2E2F0" rx="8" ry="8" style="stroke:#181818;stroke-width:0.5;"/><path d="M134.8071,640.0859 L134.8071,667.0859 M121.8071,648.0859 L147.8071,648.0859 M134.8071,667.0859 L121.8071,682.0859 M134.8071,667.0859 L147.8071,682.0859" fill="none" style="stroke:#181818;stroke-width:0.5;"/></g><g class="participant participant-head" data-entity-uid="part3" data-qualified-name="AI" id="part3-head"><rect fill="#E2E2F0" height="30.2969" rx="2.5" ry="2.5" style="stroke:#181818;stroke-width:0.5;" width="80.1377" x="382.7549" y="50"/><text fill="#000000" font-family="sans-serif" font-size="14" lengthAdjust="spacing" textLength="66.1377" x="389.7549" y="69.9951">AI Engine</text></g><g class="participant participant-tail" data-entity-uid="part3" data-qualified-name="AI" id="part3-tail"><rect fill="#E2E2F0" height="30.2969" rx="2.5" ry="2.5" style="stroke:#181818;stroke-width:0.5;" width="80.1377" x="382.7549" y="607.2891"/><text fill="#000000" font-family="sans-serif" font-size="14" lengthAdjust="spacing" textLength="66.1377" x="389.7549" y="627.2842">AI Engine</text></g><g class="participant participant-head" data-entity-uid="part4" data-qualified-name="Storage" id="part4-head"><rect fill="#E2E2F0" height="30.2969" rx="2.5" ry="2.5" style="stroke:#181818;stroke-width:0.5;" width="124.9678" x="641.147" y="50"/><text fill="#000000" font-family="sans-serif" font-size="14" lengthAdjust="spacing" textLength="110.9678" x="648.147" y="69.9951">Storage Service</text></g><g class="participant participant-tail" data-entity-uid="part4" data-qualified-name="Storage" id="part4-tail"><rect fill="#E2E2F0" height="30.2969" rx="2.5" ry="2.5" style="stroke:#181818;stroke-width:0.5;" width="124.9678" x="641.147" y="607.2891"/><text fill="#000000" font-family="sans-serif" font-size="14" lengthAdjust="spacing" textLength="110.9678" x="648.147" y="627.2842">Storage Service</text></g><rect fill="#EEEEEE" height="3" style="stroke:#EEEEEE;stroke-width:1;" width="771.1147" x="0" y="111.8633"/><line style="stroke:#000000;stroke-width:1;" x1="0" x2="771.1147" y1="111.8633" y2="111.8633"/><line style="stroke:#000000;stroke-width:1;" x1="0" x2="771.1147" y1="114.8633" y2="114.8633"/><rect fill="#EEEEEE" height="23.1328" style="stroke:#000000;stroke-width:2;" width="92.749" x="339.1829" y="101.2969"/><text fill="#000000" font-family="sans-serif" font-size="13" font-weight="bold" lengthAdjust="spacing" textLength="74.2231" x="345.1829" y="117.3638">Main Flow</text><g class="message" data-entity-1="part1" data-entity-2="part3" id="msg1"><polygon fill="#181818" points="410.8237,151.5625,420.8237,155.5625,410.8237,159.5625,414.8237,155.5625" style="stroke:#181818;stroke-width:1;"/><line style="stroke:#181818;stroke-width:1;" x1="39.4829" x2="416.8237" y1="155.5625" y2="155.5625"/><text fill="#000000" font-family="sans-serif" font-size="13" lengthAdjust="spacing" textLength="252.6748" x="46.4829" y="150.4966">Upload processed document reference</text></g><g class="message" data-entity-1="part3" data-entity-2="part4" id="msg2"><polygon fill="#181818" points="691.6309,180.6953,701.6309,184.6953,691.6309,188.6953,695.6309,184.6953" style="stroke:#181818;stroke-width:1;"/><line style="stroke:#181818;stroke-width:1;" x1="422.8237" x2="697.6309" y1="184.6953" y2="184.6953"/><text fill="#000000" font-family="sans-serif" font-size="13" lengthAdjust="spacing" textLength="226.021" x="429.8237" y="179.6294">Store classification labels and tags</text></g><g class="message" data-entity-1="part3" data-entity-2="part1" id="msg3"><polygon fill="#181818" points="50.4829,209.8281,40.4829,213.8281,50.4829,217.8281,46.4829,213.8281" style="stroke:#181818;stroke-width:1;"/><line style="stroke:#181818;stroke-width:1;" x1="44.4829" x2="421.8237" y1="213.8281" y2="213.8281"/><text fill="#000000" font-family="sans-serif" font-size="13" lengthAdjust="spacing" textLength="244.918" x="56.4829" y="208.7622">Display tags and classification results</text></g><rect fill="#EEEEEE" height="3" style="stroke:#EEEEEE;stroke-width:1;" width="771.1147" x="0" y="242.3945"/><line style="stroke:#000000;stroke-width:1;" x1="0" x2="771.1147" y1="242.3945" y2="242.3945"/><line style="stroke:#000000;stroke-width:1;" x1="0" x2="771.1147" y1="245.3945" y2="245.3945"/><rect fill="#EEEEEE" height="23.1328" style="stroke:#000000;stroke-width:2;" width="306.3794" x="232.3677" y="231.8281"/><text fill="#000000" font-family="sans-serif" font-size="13" font-weight="bold" lengthAdjust="spacing" textLength="287.8535" x="238.3677" y="247.895">Alternate Flow: Multiple Classifications</text><g class="message" data-entity-1="part3" data-entity-2="part1" id="msg4"><polygon fill="#181818" points="50.4829,282.0938,40.4829,286.0938,50.4829,290.0938,46.4829,286.0938" style="stroke:#181818;stroke-width:1;"/><line style="stroke:#181818;stroke-width:1;" x1="44.4829" x2="421.8237" y1="286.0938" y2="286.0938"/><text fill="#000000" font-family="sans-serif" font-size="13" lengthAdjust="spacing" textLength="359.3408" x="56.4829" y="281.0278">Present multiple possible labels with confidence scores</text></g><g class="message" data-entity-1="part1" data-entity-2="part3" id="msg5"><polygon fill="#181818" points="410.8237,311.2266,420.8237,315.2266,410.8237,319.2266,414.8237,315.2266" style="stroke:#181818;stroke-width:1;"/><line style="stroke:#181818;stroke-width:1;" x1="39.4829" x2="416.8237" y1="315.2266" y2="315.2266"/><text fill="#000000" font-family="sans-serif" font-size="13" lengthAdjust="spacing" textLength="237.0024" x="46.4829" y="310.1606">Optional confirmation or adjustment</text></g><rect fill="#EEEEEE" height="3" style="stroke:#EEEEEE;stroke-width:1;" width="771.1147" x="0" y="343.793"/><line style="stroke:#000000;stroke-width:1;" x1="0" x2="771.1147" y1="343.793" y2="343.793"/><line style="stroke:#000000;stroke-width:1;" x1="0" x2="771.1147" y1="346.793" y2="346.793"/><rect fill="#EEEEEE" height="23.1328" style="stroke:#000000;stroke-width:2;" width="286.8096" x="242.1526" y="333.2266"/><text fill="#000000" font-family="sans-serif" font-size="13" font-weight="bold" lengthAdjust="spacing" textLength="268.2837" x="248.1526" y="349.2935">Alternate Flow: New Document Type</text><g class="message" data-entity-1="part3" data-entity-2="part2" id="msg6"><polygon fill="#181818" points="145.8071,383.4922,135.8071,387.4922,145.8071,391.4922,141.8071,387.4922" style="stroke:#181818;stroke-width:1;"/><line style="stroke:#181818;stroke-width:1;" x1="139.8071" x2="421.8237" y1="387.4922" y2="387.4922"/><text fill="#000000" font-family="sans-serif" font-size="13" lengthAdjust="spacing" textLength="193.4067" x="151.8071" y="382.4263">Flag unknown document type</text></g><g class="message" data-entity-1="part2" data-entity-2="part3" id="msg7"><polygon fill="#181818" points="410.8237,412.625,420.8237,416.625,410.8237,420.625,414.8237,416.625" style="stroke:#181818;stroke-width:1;"/><line style="stroke:#181818;stroke-width:1;" x1="134.8071" x2="416.8237" y1="416.625" y2="416.625"/><text fill="#000000" font-family="sans-serif" font-size="13" lengthAdjust="spacing" textLength="215.2046" x="141.8071" y="411.5591">Trigger offline retraining / review</text></g><rect fill="#EEEEEE" height="3" style="stroke:#EEEEEE;stroke-width:1;" width="771.1147" x="0" y="445.1914"/><line style="stroke:#000000;stroke-width:1;" x1="0" x2="771.1147" y1="445.1914" y2="445.1914"/><line style="stroke:#000000;stroke-width:1;" x1="0" x2="771.1147" y1="448.1914" y2="448.1914"/><rect fill="#EEEEEE" height="23.1328" style="stroke:#000000;stroke-width:2;" width="225.542" x="272.7864" y="434.625"/><text fill="#000000" font-family="sans-serif" font-size="13" font-weight="bold" lengthAdjust="spacing" textLength="207.0161" x="278.7864" y="450.6919">Error Flow: Misclassification</text><g class="message" data-entity-1="part1" data-entity-2="part3" id="msg8"><polygon fill="#181818" points="410.8237,484.8906,420.8237,488.8906,410.8237,492.8906,414.8237,488.8906" style="stroke:#181818;stroke-width:1;"/><line style="stroke:#181818;stroke-width:1;" x1="39.4829" x2="416.8237" y1="488.8906" y2="488.8906"/><text fill="#000000" font-family="sans-serif" font-size="13" lengthAdjust="spacing" textLength="112.5439" x="46.4829" y="483.8247">Provide feedback</text></g><g class="message" data-entity-1="part3" data-entity-2="part4" id="msg9"><polygon fill="#181818" points="691.6309,514.0234,701.6309,518.0234,691.6309,522.0234,695.6309,518.0234" style="stroke:#181818;stroke-width:1;"/><line style="stroke:#181818;stroke-width:1;" x1="422.8237" x2="697.6309" y1="518.0234" y2="518.0234"/><text fill="#000000" font-family="sans-serif" font-size="13" lengthAdjust="spacing" textLength="256.7627" x="429.8237" y="512.9575">Store feedback for model improvement</text></g><rect fill="#EEEEEE" height="3" style="stroke:#EEEEEE;stroke-width:1;" width="771.1147" x="0" y="546.5898"/><line style="stroke:#000000;stroke-width:1;" x1="0" x2="771.1147" y1="546.5898" y2="546.5898"/><line style="stroke:#000000;stroke-width:1;" x1="0" x2="771.1147" y1="549.5898" y2="549.5898"/><rect fill="#EEEEEE" height="23.1328" style="stroke:#000000;stroke-width:2;" width="264.1104" x="253.5022" y="536.0234"/><text fill="#000000" font-family="sans-serif" font-size="13" font-weight="bold" lengthAdjust="spacing" textLength="245.5845" x="259.5022" y="552.0903">Error Flow: AI Engine Unavailable</text><g class="message" data-entity-1="part3" data-entity-2="part4" id="msg10"><polygon fill="#181818" points="691.6309,586.2891,701.6309,590.2891,691.6309,594.2891,695.6309,590.2891" style="stroke:#181818;stroke-width:1;"/><line style="stroke:#181818;stroke-width:1;" x1="422.8237" x2="697.6309" y1="590.2891" y2="590.2891"/><text fill="#000000" font-family="sans-serif" font-size="13" lengthAdjust="spacing" textLength="256.8071" x="429.8237" y="585.2231">Queue document for later classification</text></g><?plantuml-src TL9DJyCm3BttLrZS4VT9Gq9iapZm9TWFy1At6D8aYjDM_7lSj6Lim2sEd-ttdeqcXmGNMszXBvGk00Kq6DyLJhaRsx9doGarB83oKqLCcGr7z5b1TrhMiAS9S7UQVT5AR0XUAFLi9ipyLrNhDTmZUzYvCC1wNStZuV9Q-y0Azj45j11JC2H25cmmNKlQDr5DYRoXIe4ANyQioel0E1JXcWrc3XuS7iW9e6hDsCXSj8nRmOObElmioO8wgqyadSjI6D-uJCbZfa9x1VUQuUW8RazgP1HqFkT96utqswKc1Yqvw6DcE71-0nDypNPK1s9KZVmovZ6E8z1DqDHEB7LbQDyxoQD5Vt9ze04sYuUldv6E9CjcjVNEOGET__1Xy4U_isAh2R9mU4tSDCefrBNJxQj7UYTwBhw1Amrwfg5msAQan6QlMCwS_MFhJodqAXzg8dj0y_7FYfSqrDg-3POSSAkdqjEt_9-ZlyyKzXvxP3NS_P1_xFxSKKT7vMDtfmwcivlu0W00?></g></svg>