<?plantuml 1.2026.1beta5?><svg xmlns="http://www.w3.org/2000/svg" xmlns:xlink="http://www.w3.org/1999/xlink" contentStyleType="text/css" data-diagram-type="SEQUENCE" height="863px" preserveAspectRatio="none" style="width:1459px;height:863px;background:#FFFFFF;" version="1.1" viewBox="0 0 1459 863" width="1459px" zoomAndPan="magnify"><defs/><g><g class="participant-lifeline" data-entity-uid="part1" data-qualified-name="EndUser" id="part1-lifeline"><g><title>End User</title><rect fill="#000000" fill-opacity="0.00000" height="701.7891" width="8" x="35.4829" y="81.2969"/><line style="stroke:#181818;stroke-width:0.5;stroke-dasharray:5,5;" x1="39" x2="39" y1="81.2969" y2="783.0859"/></g></g><g class="participant-lifeline" data-entity-uid="part2" data-qualified-name="UI" id="part2-lifeline"><g><title>UI . Search Interface</title><rect fill="#000000" fill-opacity="0.00000" height="701.7891" width="8" x="325.4561" y="81.2969"/><line style="stroke:#181818;stroke-width:0.5;stroke-dasharray:5,5;" x1="328.6924" x2="328.6924" y1="81.2969" y2="783.0859"/></g></g><g class="participant-lifeline" data-entity-uid="part3" data-qualified-name="SearchEngine" id="part3-lifeline"><g><title>Search Engine Module</title><rect fill="#000000" fill-opacity="0.00000" height="701.7891" width="8" x="702.6016" y="81.2969"/><line style="stroke:#181818;stroke-width:0.5;stroke-dasharray:5,5;" x1="706.5044" x2="706.5044" y1="81.2969" y2="783.0859"/></g></g><g class="participant-lifeline" data-entity-uid="part4" data-qualified-name="AI" id="part4-lifeline"><g><title>AI Indexer</title><rect fill="#000000" fill-opacity="0.00000" height="701.7891" width="8" x="1072.2124" y="81.2969"/><line style="stroke:#181818;stroke-width:0.5;stroke-dasharray:5,5;" x1="1075.5562" x2="1075.5562" y1="81.2969" y2="783.0859"/></g></g><g class="participant-lifeline" data-entity-uid="part5" data-qualified-name="Storage" id="part5-lifeline"><g><title>Storage Service</title><rect fill="#000000" fill-opacity="0.00000" height="701.7891" width="8" x="1381.292" y="81.2969"/><line style="stroke:#181818;stroke-width:0.5;stroke-dasharray:5,5;" x1="1384.8081" x2="1384.8081" y1="81.2969" y2="783.0859"/></g></g><g class="participant participant-head" data-entity-uid="part1" data-qualified-name="EndUser" id="part1-head"><text fill="#000000" font-family="sans-serif" font-size="14" lengthAdjust="spacing" textLength="62.9658" x="5" y="77.9951">End User</text><ellipse cx="39.4829" cy="13.5" fill="#E2E2F0" rx="8" ry="8" style="stroke:#181818;stroke-width:0.5;"/><path d="M39.4829,21.5 L39.4829,48.5 M26.4829,29.5 L52.4829,29.5 M39.4829,48.5 L26.4829,63.5 M39.4829,48.5 L52.4829,63.5" fill="none" style="stroke:#181818;stroke-width:0.5;"/></g><g class="participant participant-tail" data-entity-uid="part1" data-qualified-name="EndUser" id="part1-tail"><text fill="#000000" font-family="sans-serif" font-size="14" lengthAdjust="spacing" textLength="62.9658" x="5" y="795.0811">End User</text><ellipse cx="39.4829" cy="806.8828" fill="#E2E2F0" rx="8" ry="8" style="stroke:#181818;stroke-width:0.5;"/><path d="M39.4829,814.8828 L39.4829,841.8828 M26.4829,822.8828 L52.4829,822.8828 M39.4829,841.8828 L26.4829,856.8828 M39.4829,841.8828 L52.4829,856.8828" fill="none" style="stroke:#181818;stroke-width:0.5;"/></g><g class="participant participant-head" data-entity-uid="part2" data-qualified-name="UI" id="part2-head"><rect fill="#E2E2F0" height="30.2969" rx="2.5" ry="2.5" style="stroke:#181818;stroke-width:0.5;" width="157.5273" x="250.6924" y="50"/><text fill="#000000" font-family="sans-serif" font-size="14" lengthAdjust="spacing" textLength="143.5273" x="257.6924" y="69.9951">UI / Search Interface</text></g><g class="participant participant-tail" data-entity-uid="part2" data-qualified-name="UI" id="part2-tail"><rect fill="#E2E2F0" height="30.2969" rx="2.5" ry="2.5" style="stroke:#181818;stroke-width:0.5;" width="157.5273" x="250.6924" y="782.0859"/><text fill="#000000" font-family="sans-serif" font-size="14" lengthAdjust="spacing" textLength="143.5273" x="257.6924" y="802.0811">UI / Search Interface</text></g><g class="participant participant-head" data-entity-uid="part3" data-qualified-name="SearchEngine" id="part3-head"><rect fill="#E2E2F0" height="30.2969" rx="2.5" ry="2.5" style="stroke:#181818;stroke-width:0.5;" width="170.1943" x="621.5044" y="50"/><text fill="#000000" font-family="sans-serif" font-size="14" lengthAdjust="spacing" textLength="156.1943" x="628.5044" y="69.9951">Search Engine Module</text></g><g class="participant participant-tail" data-entity-uid="part3" data-qualified-name="SearchEngine" id="part3-tail"><rect fill="#E2E2F0" height="30.2969" rx="2.5" ry="2.5" style="stroke:#181818;stroke-width:0.5;" width="170.1943" x="621.5044" y="782.0859"/><text fill="#000000" font-family="sans-serif" font-size="14" lengthAdjust="spacing" textLength="156.1943" x="628.5044" y="802.0811">Search Engine Module</text></g><g class="participant participant-head" data-entity-uid="part4" data-qualified-name="AI" id="part4-head"><rect fill="#E2E2F0" height="30.2969" rx="2.5" ry="2.5" style="stroke:#181818;stroke-width:0.5;" width="85.3125" x="1033.5562" y="50"/><text fill="#000000" font-family="sans-serif" font-size="14" lengthAdjust="spacing" textLength="71.3125" x="1040.5562" y="69.9951">AI Indexer</text></g><g class="participant participant-tail" data-entity-uid="part4" data-qualified-name="AI" id="part4-tail"><rect fill="#E2E2F0" height="30.2969" rx="2.5" ry="2.5" style="stroke:#181818;stroke-width:0.5;" width="85.3125" x="1033.5562" y="782.0859"/><text fill="#000000" font-family="sans-serif" font-size="14" lengthAdjust="spacing" textLength="71.3125" x="1040.5562" y="802.0811">AI Indexer</text></g><g class="participant participant-head" data-entity-uid="part5" data-qualified-name="Storage" id="part5-head"><rect fill="#E2E2F0" height="30.2969" rx="2.5" ry="2.5" style="stroke:#181818;stroke-width:0.5;" width="124.9678" x="1322.8081" y="50"/><text fill="#000000" font-family="sans-serif" font-size="14" lengthAdjust="spacing" textLength="110.9678" x="1329.8081" y="69.9951">Storage Service</text></g><g class="participant participant-tail" data-entity-uid="part5" data-qualified-name="Storage" id="part5-tail"><rect fill="#E2E2F0" height="30.2969" rx="2.5" ry="2.5" style="stroke:#181818;stroke-width:0.5;" width="124.9678" x="1322.8081" y="782.0859"/><text fill="#000000" font-family="sans-serif" font-size="14" lengthAdjust="spacing" textLength="110.9678" x="1329.8081" y="802.0811">Storage Service</text></g><rect fill="#EEEEEE" height="3" style="stroke:#EEEEEE;stroke-width:1;" width="1452.7759" x="0" y="111.8633"/><line style="stroke:#000000;stroke-width:1;" x1="0" x2="1452.7759" y1="111.8633" y2="111.8633"/><line style="stroke:#000000;stroke-width:1;" x1="0" x2="1452.7759" y1="114.8633" y2="114.8633"/><rect fill="#EEEEEE" height="23.1328" style="stroke:#000000;stroke-width:2;" width="92.749" x="680.0134" y="101.2969"/><text fill="#000000" font-family="sans-serif" font-size="13" font-weight="bold" lengthAdjust="spacing" textLength="74.2231" x="686.0134" y="117.3638">Main Flow</text><g class="message" data-entity-1="part1" data-entity-2="part2" id="msg1"><polygon fill="#181818" points="317.4561,151.5625,327.4561,155.5625,317.4561,159.5625,321.4561,155.5625" style="stroke:#181818;stroke-width:1;"/><line style="stroke:#181818;stroke-width:1;" x1="39.4829" x2="323.4561" y1="155.5625" y2="155.5625"/><text fill="#000000" font-family="sans-serif" font-size="13" lengthAdjust="spacing" textLength="265.9731" x="46.4829" y="150.4966">Enter search query (keyword / semantic)</text></g><g class="message" data-entity-1="part2" data-entity-2="part3" id="msg2"><polygon fill="#181818" points="694.6016,180.6953,704.6016,184.6953,694.6016,188.6953,698.6016,184.6953" style="stroke:#181818;stroke-width:1;"/><line style="stroke:#181818;stroke-width:1;" x1="329.4561" x2="700.6016" y1="184.6953" y2="184.6953"/><text fill="#000000" font-family="sans-serif" font-size="13" lengthAdjust="spacing" textLength="74.4009" x="336.4561" y="179.6294">Send query</text></g><g class="message" data-entity-1="part3" data-entity-2="part4" id="msg3"><polygon fill="#181818" points="1064.2124,209.8281,1074.2124,213.8281,1064.2124,217.8281,1068.2124,213.8281" style="stroke:#181818;stroke-width:1;"/><line style="stroke:#181818;stroke-width:1;" x1="706.6016" x2="1070.2124" y1="213.8281" y2="213.8281"/><text fill="#000000" font-family="sans-serif" font-size="13" lengthAdjust="spacing" textLength="345.6108" x="713.6016" y="208.7622">Process query (semantic analysis, entity recognition)</text></g><g class="message" data-entity-1="part4" data-entity-2="part5" id="msg4"><polygon fill="#181818" points="1373.292,238.9609,1383.292,242.9609,1373.292,246.9609,1377.292,242.9609" style="stroke:#181818;stroke-width:1;"/><line style="stroke:#181818;stroke-width:1;" x1="1076.2124" x2="1379.292" y1="242.9609" y2="242.9609"/><text fill="#000000" font-family="sans-serif" font-size="13" lengthAdjust="spacing" textLength="285.0796" x="1083.2124" y="237.895">Retrieve relevant documents and metadata</text></g><g class="message" data-entity-1="part5" data-entity-2="part4" id="msg5"><polygon fill="#181818" points="1087.2124,268.0938,1077.2124,272.0938,1087.2124,276.0938,1083.2124,272.0938" style="stroke:#181818;stroke-width:1;"/><line style="stroke:#181818;stroke-width:1;" x1="1081.2124" x2="1384.292" y1="272.0938" y2="272.0938"/><text fill="#000000" font-family="sans-serif" font-size="13" lengthAdjust="spacing" textLength="167.5781" x="1093.2124" y="267.0278">Return document content</text></g><g class="message" data-entity-1="part4" data-entity-2="part3" id="msg6"><polygon fill="#181818" points="717.6016,297.2266,707.6016,301.2266,717.6016,305.2266,713.6016,301.2266" style="stroke:#181818;stroke-width:1;"/><line style="stroke:#181818;stroke-width:1;" x1="711.6016" x2="1075.2124" y1="301.2266" y2="301.2266"/><text fill="#000000" font-family="sans-serif" font-size="13" lengthAdjust="spacing" textLength="173.5322" x="723.6016" y="296.1606">Compute relevance scores</text></g><g class="message" data-entity-1="part3" data-entity-2="part2" id="msg7"><polygon fill="#181818" points="340.4561,326.3594,330.4561,330.3594,340.4561,334.3594,336.4561,330.3594" style="stroke:#181818;stroke-width:1;"/><line style="stroke:#181818;stroke-width:1;" x1="334.4561" x2="705.6016" y1="330.3594" y2="330.3594"/><text fill="#000000" font-family="sans-serif" font-size="13" lengthAdjust="spacing" textLength="353.1455" x="346.4561" y="325.2935">Return ranked results with summaries and confidence</text></g><g class="message" data-entity-1="part2" data-entity-2="part1" id="msg8"><polygon fill="#181818" points="50.4829,355.4922,40.4829,359.4922,50.4829,363.4922,46.4829,359.4922" style="stroke:#181818;stroke-width:1;"/><line style="stroke:#181818;stroke-width:1;" x1="44.4829" x2="328.4561" y1="359.4922" y2="359.4922"/><text fill="#000000" font-family="sans-serif" font-size="13" lengthAdjust="spacing" textLength="95.8877" x="56.4829" y="354.4263">Display results</text></g><rect fill="#EEEEEE" height="3" style="stroke:#EEEEEE;stroke-width:1;" width="1452.7759" x="0" y="388.0586"/><line style="stroke:#000000;stroke-width:1;" x1="0" x2="1452.7759" y1="388.0586" y2="388.0586"/><line style="stroke:#000000;stroke-width:1;" x1="0" x2="1452.7759" y1="391.0586" y2="391.0586"/><rect fill="#EEEEEE" height="23.1328" style="stroke:#000000;stroke-width:2;" width="214.6367" x="619.0696" y="377.4922"/><text fill="#000000" font-family="sans-serif" font-size="13" font-weight="bold" lengthAdjust="spacing" textLength="196.1108" x="625.0696" y="393.5591">Alternate Flow: No Results</text><g class="message" data-entity-1="part3" data-entity-2="part2" id="msg9"><polygon fill="#181818" points="340.4561,427.7578,330.4561,431.7578,340.4561,435.7578,336.4561,431.7578" style="stroke:#181818;stroke-width:1;"/><line style="stroke:#181818;stroke-width:1;" x1="334.4561" x2="705.6016" y1="431.7578" y2="431.7578"/><text fill="#000000" font-family="sans-serif" font-size="13" lengthAdjust="spacing" textLength="137.7568" x="346.4561" y="426.6919">Return empty results</text></g><g class="message" data-entity-1="part2" data-entity-2="part1" id="msg10"><polygon fill="#181818" points="50.4829,456.8906,40.4829,460.8906,50.4829,464.8906,46.4829,460.8906" style="stroke:#181818;stroke-width:1;"/><line style="stroke:#181818;stroke-width:1;" x1="44.4829" x2="328.4561" y1="460.8906" y2="460.8906"/><text fill="#000000" font-family="sans-serif" font-size="13" lengthAdjust="spacing" textLength="264.3989" x="56.4829" y="455.8247">Suggest similar queries / related entities</text></g><rect fill="#EEEEEE" height="3" style="stroke:#EEEEEE;stroke-width:1;" width="1452.7759" x="0" y="489.457"/><line style="stroke:#000000;stroke-width:1;" x1="0" x2="1452.7759" y1="489.457" y2="489.457"/><line style="stroke:#000000;stroke-width:1;" x1="0" x2="1452.7759" y1="492.457" y2="492.457"/><rect fill="#EEEEEE" height="23.1328" style="stroke:#000000;stroke-width:2;" width="274.5459" x="589.115" y="478.8906"/><text fill="#000000" font-family="sans-serif" font-size="13" font-weight="bold" lengthAdjust="spacing" textLength="256.02" x="595.115" y="494.9575">Alternate Flow: Advanced Filtering</text><g class="message" data-entity-1="part2" data-entity-2="part3" id="msg11"><polygon fill="#181818" points="694.6016,529.1563,704.6016,533.1563,694.6016,537.1563,698.6016,533.1563" style="stroke:#181818;stroke-width:1;"/><line style="stroke:#181818;stroke-width:1;" x1="329.4561" x2="700.6016" y1="533.1563" y2="533.1563"/><text fill="#000000" font-family="sans-serif" font-size="13" lengthAdjust="spacing" textLength="137.5537" x="336.4561" y="528.0903">Apply dynamic filters</text></g><g class="message" data-entity-1="part3" data-entity-2="part2" id="msg12"><polygon fill="#181818" points="340.4561,558.2891,330.4561,562.2891,340.4561,566.2891,336.4561,562.2891" style="stroke:#181818;stroke-width:1;"/><line style="stroke:#181818;stroke-width:1;" x1="334.4561" x2="705.6016" y1="562.2891" y2="562.2891"/><text fill="#000000" font-family="sans-serif" font-size="13" lengthAdjust="spacing" textLength="194.2764" x="346.4561" y="557.2231">Return filtered, scored results</text></g><rect fill="#EEEEEE" height="3" style="stroke:#EEEEEE;stroke-width:1;" width="1452.7759" x="0" y="590.8555"/><line style="stroke:#000000;stroke-width:1;" x1="0" x2="1452.7759" y1="590.8555" y2="590.8555"/><line style="stroke:#000000;stroke-width:1;" x1="0" x2="1452.7759" y1="593.8555" y2="593.8555"/><rect fill="#EEEEEE" height="23.1328" style="stroke:#000000;stroke-width:2;" width="290.1675" x="581.3042" y="580.2891"/><text fill="#000000" font-family="sans-serif" font-size="13" font-weight="bold" lengthAdjust="spacing" textLength="271.6416" x="587.3042" y="596.356">Error Flow: Search Index Unavailable</text><g class="message" data-entity-1="part3" data-entity-2="part2" id="msg13"><polygon fill="#181818" points="340.4561,630.5547,330.4561,634.5547,340.4561,638.5547,336.4561,634.5547" style="stroke:#181818;stroke-width:1;"/><line style="stroke:#181818;stroke-width:1;" x1="334.4561" x2="705.6016" y1="634.5547" y2="634.5547"/><text fill="#000000" font-family="sans-serif" font-size="13" lengthAdjust="spacing" textLength="157.8726" x="346.4561" y="629.4888">Notify index unavailable</text></g><g class="message" data-entity-1="part2" data-entity-2="part1" id="msg14"><polygon fill="#181818" points="50.4829,659.6875,40.4829,663.6875,50.4829,667.6875,46.4829,663.6875" style="stroke:#181818;stroke-width:1;"/><line style="stroke:#181818;stroke-width:1;" x1="44.4829" x2="328.4561" y1="663.6875" y2="663.6875"/><text fill="#000000" font-family="sans-serif" font-size="13" lengthAdjust="spacing" textLength="203.6963" x="56.4829" y="658.6216">Show error, retry automatically</text></g><rect fill="#EEEEEE" height="3" style="stroke:#EEEEEE;stroke-width:1;" width="1452.7759" x="0" y="692.2539"/><line style="stroke:#000000;stroke-width:1;" x1="0" x2="1452.7759" y1="692.2539" y2="692.2539"/><line style="stroke:#000000;stroke-width:1;" x1="0" x2="1452.7759" y1="695.2539" y2="695.2539"/><rect fill="#EEEEEE" height="23.1328" style="stroke:#000000;stroke-width:2;" width="283.4834" x="584.6462" y="681.6875"/><text fill="#000000" font-family="sans-serif" font-size="13" font-weight="bold" lengthAdjust="spacing" textLength="264.9575" x="590.6462" y="697.7544">Error Flow: Semantic Matching Fails</text><g class="message" data-entity-1="part3" data-entity-2="part2" id="msg15"><polygon fill="#181818" points="340.4561,731.9531,330.4561,735.9531,340.4561,739.9531,336.4561,735.9531" style="stroke:#181818;stroke-width:1;"/><line style="stroke:#181818;stroke-width:1;" x1="334.4561" x2="705.6016" y1="735.9531" y2="735.9531"/><text fill="#000000" font-family="sans-serif" font-size="13" lengthAdjust="spacing" textLength="177.8804" x="346.4561" y="730.8872">Fallback to keyword search</text></g><g class="message" data-entity-1="part2" data-entity-2="part1" id="msg16"><polygon fill="#181818" points="50.4829,761.0859,40.4829,765.0859,50.4829,769.0859,46.4829,765.0859" style="stroke:#181818;stroke-width:1;"/><line style="stroke:#181818;stroke-width:1;" x1="44.4829" x2="328.4561" y1="765.0859" y2="765.0859"/><text fill="#000000" font-family="sans-serif" font-size="13" lengthAdjust="spacing" textLength="137.8394" x="56.4829" y="760.02">Show fallback results</text></g><?plantuml-src VLFDRk8m4BxdAKQSjXAhtf5OATe5YGDLLSG3JEqXM3XsrdPWy_Rx9KveQMblYVtzpOo7LVA1PYkdQHybp8WZuQV_BXeEoIZJi4iqss_eaNR2GHrfuvA40oiPuFlDBN84hLnbdD3MwzPcOBx8vxUKSWDDBV_60EL7HMJaIY0GpcPq7S-AOhcaBHj7Q-ilj5mMOthw-Gl9Q84S24inX_hRIkZenqcwYmyQ5KMfOM7KGm4mAEypWhmJD6OW5JStG9Qz-7FmIcAST2SrOiUsYoREIV2VEWgYVELCCjuz56Ms6gjQq8kaOEGiG5avzoLhhzeQr0WbJRKarfouc2YJFOXjS5SqAOzYNPeCRclvxUkcJLSJ9HIL3n8_LRP_9ntOdKI34rkBD1UJZXJRkcO4pk7WUJ1Qe3UsS1h0WlwOs5Zk9lOmgz9Y78wHen_OWfuyhB8uXlTT5AcRzARrqMlNLfN4HD7Knd8O9j97VEphXPtEay3HtHYb7bgYQMtw6-EgFixTDr4sZUr8TuvhJFemuBzlOiQ8dkUEwvk6h4B01kOKr_t2Bj3UyPbHowkLBrlpv9CvT6G6Glj6-DoU8xP3Ugivt1CUAxV9rup7ojPsTvACBtdBIHtxTgmX_VMCrb1vPNMYv6dQhhnpzwCS9lpOYly0?></g></svg>