<?plantuml 1.2026.1beta5?><svg xmlns="http://www.w3.org/2000/svg" xmlns:xlink="http://www.w3.org/1999/xlink" contentStyleType="text/css" data-diagram-type="SEQUENCE" height="901px" preserveAspectRatio="none" style="width:924px;height:901px;background:#FFFFFF;" version="1.1" viewBox="0 0 924 901" width="924px" zoomAndPan="magnify"><defs/><g><g class="participant-lifeline" data-entity-uid="part1" data-qualified-name="EndUser" id="part1-lifeline"><g><title>End User</title><rect fill="#000000" fill-opacity="0.00000" height="739.7891" width="8" x="35.4829" y="81.2969"/><line style="stroke:#181818;stroke-width:0.5;stroke-dasharray:5,5;" x1="39" x2="39" y1="81.2969" y2="821.0859"/></g></g><g class="participant-lifeline" data-entity-uid="part2" data-qualified-name="UI" id="part2-lifeline"><g><title>UI . Upload Interface</title><rect fill="#000000" fill-opacity="0.00000" height="739.7891" width="8" x="301.5762" y="81.2969"/><line style="stroke:#181818;stroke-width:0.5;stroke-dasharray:5,5;" x1="305.4878" x2="305.4878" y1="81.2969" y2="821.0859"/></g></g><g class="participant-lifeline" data-entity-uid="part3" data-qualified-name="Storage" id="part3-lifeline"><g><title>Storage Service</title><rect fill="#000000" fill-opacity="0.00000" height="739.7891" width="8" x="482.668" y="81.2969"/><line style="stroke:#181818;stroke-width:0.5;stroke-dasharray:5,5;" x1="486.1841" x2="486.1841" y1="81.2969" y2="821.0859"/></g></g><g class="participant-lifeline" data-entity-uid="part4" data-qualified-name="AI" id="part4-lifeline"><g><title>AI Engine</title><rect fill="#000000" fill-opacity="0.00000" height="739.7891" width="8" x="611.9565" y="81.2969"/><line style="stroke:#181818;stroke-width:0.5;stroke-dasharray:5,5;" x1="615.8877" x2="615.8877" y1="81.2969" y2="821.0859"/></g></g><g class="participant-lifeline" data-entity-uid="part5" data-qualified-name="Notify" id="part5-lifeline"><g><title>Notification Service</title><rect fill="#000000" fill-opacity="0.00000" height="739.7891" width="8" x="833.5566" y="81.2969"/><line style="stroke:#181818;stroke-width:0.5;stroke-dasharray:5,5;" x1="837.2964" x2="837.2964" y1="81.2969" y2="821.0859"/></g></g><g class="participant participant-head" data-entity-uid="part1" data-qualified-name="EndUser" id="part1-head"><text fill="#000000" font-family="sans-serif" font-size="14" lengthAdjust="spacing" textLength="62.9658" x="5" y="77.9951">End User</text><ellipse cx="39.4829" cy="13.5" fill="#E2E2F0" rx="8" ry="8" style="stroke:#181818;stroke-width:0.5;"/><path d="M39.4829,21.5 L39.4829,48.5 M26.4829,29.5 L52.4829,29.5 M39.4829,48.5 L26.4829,63.5 M39.4829,48.5 L52.4829,63.5" fill="none" style="stroke:#181818;stroke-width:0.5;"/></g><g class="participant participant-tail" data-entity-uid="part1" data-qualified-name="EndUser" id="part1-tail"><text fill="#000000" font-family="sans-serif" font-size="14" lengthAdjust="spacing" textLength="62.9658" x="5" y="833.0811">End User</text><ellipse cx="39.4829" cy="844.8828" fill="#E2E2F0" rx="8" ry="8" style="stroke:#181818;stroke-width:0.5;"/><path d="M39.4829,852.8828 L39.4829,879.8828 M26.4829,860.8828 L52.4829,860.8828 M39.4829,879.8828 L26.4829,894.8828 M39.4829,879.8828 L52.4829,894.8828" fill="none" style="stroke:#181818;stroke-width:0.5;"/></g><g class="participant participant-head" data-entity-uid="part2" data-qualified-name="UI" id="part2-head"><rect fill="#E2E2F0" height="30.2969" rx="2.5" ry="2.5" style="stroke:#181818;stroke-width:0.5;" width="158.1768" x="226.4878" y="50"/><text fill="#000000" font-family="sans-serif" font-size="14" lengthAdjust="spacing" textLength="144.1768" x="233.4878" y="69.9951">UI / Upload Interface</text></g><g class="participant participant-tail" data-entity-uid="part2" data-qualified-name="UI" id="part2-tail"><rect fill="#E2E2F0" height="30.2969" rx="2.5" ry="2.5" style="stroke:#181818;stroke-width:0.5;" width="158.1768" x="226.4878" y="820.0859"/><text fill="#000000" font-family="sans-serif" font-size="14" lengthAdjust="spacing" textLength="144.1768" x="233.4878" y="840.0811">UI / Upload Interface</text></g><g class="participant participant-head" data-entity-uid="part3" data-qualified-name="Storage" id="part3-head"><rect fill="#E2E2F0" height="30.2969" rx="2.5" ry="2.5" style="stroke:#181818;stroke-width:0.5;" width="124.9678" x="424.1841" y="50"/><text fill="#000000" font-family="sans-serif" font-size="14" lengthAdjust="spacing" textLength="110.9678" x="431.1841" y="69.9951">Storage Service</text></g><g class="participant participant-tail" data-entity-uid="part3" data-qualified-name="Storage" id="part3-tail"><rect fill="#E2E2F0" height="30.2969" rx="2.5" ry="2.5" style="stroke:#181818;stroke-width:0.5;" width="124.9678" x="424.1841" y="820.0859"/><text fill="#000000" font-family="sans-serif" font-size="14" lengthAdjust="spacing" textLength="110.9678" x="431.1841" y="840.0811">Storage Service</text></g><g class="participant participant-head" data-entity-uid="part4" data-qualified-name="AI" id="part4-head"><rect fill="#E2E2F0" height="30.2969" rx="2.5" ry="2.5" style="stroke:#181818;stroke-width:0.5;" width="80.1377" x="575.8877" y="50"/><text fill="#000000" font-family="sans-serif" font-size="14" lengthAdjust="spacing" textLength="66.1377" x="582.8877" y="69.9951">AI Engine</text></g><g class="participant participant-tail" data-entity-uid="part4" data-qualified-name="AI" id="part4-tail"><rect fill="#E2E2F0" height="30.2969" rx="2.5" ry="2.5" style="stroke:#181818;stroke-width:0.5;" width="80.1377" x="575.8877" y="820.0859"/><text fill="#000000" font-family="sans-serif" font-size="14" lengthAdjust="spacing" textLength="66.1377" x="582.8877" y="840.0811">AI Engine</text></g><g class="participant participant-head" data-entity-uid="part5" data-qualified-name="Notify" id="part5-head"><rect fill="#E2E2F0" height="30.2969" rx="2.5" ry="2.5" style="stroke:#181818;stroke-width:0.5;" width="150.5205" x="762.2964" y="50"/><text fill="#000000" font-family="sans-serif" font-size="14" lengthAdjust="spacing" textLength="136.5205" x="769.2964" y="69.9951">Notification Service</text></g><g class="participant participant-tail" data-entity-uid="part5" data-qualified-name="Notify" id="part5-tail"><rect fill="#E2E2F0" height="30.2969" rx="2.5" ry="2.5" style="stroke:#181818;stroke-width:0.5;" width="150.5205" x="762.2964" y="820.0859"/><text fill="#000000" font-family="sans-serif" font-size="14" lengthAdjust="spacing" textLength="136.5205" x="769.2964" y="840.0811">Notification Service</text></g><rect fill="#EEEEEE" height="3" style="stroke:#EEEEEE;stroke-width:1;" width="917.8169" x="0" y="111.8633"/><line style="stroke:#000000;stroke-width:1;" x1="0" x2="917.8169" y1="111.8633" y2="111.8633"/><line style="stroke:#000000;stroke-width:1;" x1="0" x2="917.8169" y1="114.8633" y2="114.8633"/><rect fill="#EEEEEE" height="23.1328" style="stroke:#000000;stroke-width:2;" width="92.749" x="412.5339" y="101.2969"/><text fill="#000000" font-family="sans-serif" font-size="13" font-weight="bold" lengthAdjust="spacing" textLength="74.2231" x="418.5339" y="117.3638">Main Flow</text><g class="message" data-entity-1="part1" data-entity-2="part2" id="msg1"><polygon fill="#181818" points="293.5762,151.5625,303.5762,155.5625,293.5762,159.5625,297.5762,155.5625" style="stroke:#181818;stroke-width:1;"/><line style="stroke:#181818;stroke-width:1;" x1="39.4829" x2="299.5762" y1="155.5625" y2="155.5625"/><text fill="#000000" font-family="sans-serif" font-size="13" lengthAdjust="spacing" textLength="200.3701" x="46.4829" y="150.4966">Selects and uploads document</text></g><g class="message" data-entity-1="part2" data-entity-2="part2" id="msg2"><line style="stroke:#181818;stroke-width:1;" x1="305.5762" x2="347.5762" y1="184.6953" y2="184.6953"/><line style="stroke:#181818;stroke-width:1;" x1="347.5762" x2="347.5762" y1="184.6953" y2="197.6953"/><line style="stroke:#181818;stroke-width:1;" x1="306.5762" x2="347.5762" y1="197.6953" y2="197.6953"/><polygon fill="#181818" points="316.5762,193.6953,306.5762,197.6953,316.5762,201.6953,312.5762,197.6953" style="stroke:#181818;stroke-width:1;"/><text fill="#000000" font-family="sans-serif" font-size="13" lengthAdjust="spacing" textLength="143.9712" x="312.5762" y="179.6294">Validate file type, size</text></g><g class="message" data-entity-1="part2" data-entity-2="part3" id="msg3"><polygon fill="#181818" points="474.668,222.8281,484.668,226.8281,474.668,230.8281,478.668,226.8281" style="stroke:#181818;stroke-width:1;"/><line style="stroke:#181818;stroke-width:1;" x1="305.5762" x2="480.668" y1="226.8281" y2="226.8281"/><text fill="#000000" font-family="sans-serif" font-size="13" lengthAdjust="spacing" textLength="157.0918" x="312.5762" y="221.7622">Store original document</text></g><g class="message" data-entity-1="part2" data-entity-2="part4" id="msg4"><polygon fill="#181818" points="603.9565,251.9609,613.9565,255.9609,603.9565,259.9609,607.9565,255.9609" style="stroke:#181818;stroke-width:1;"/><line style="stroke:#181818;stroke-width:1;" x1="305.5762" x2="609.9565" y1="255.9609" y2="255.9609"/><text fill="#000000" font-family="sans-serif" font-size="13" lengthAdjust="spacing" textLength="181.2383" x="312.5762" y="250.895">Send document for analysis</text></g><g class="message" data-entity-1="part4" data-entity-2="part4" id="msg5"><line style="stroke:#181818;stroke-width:1;" x1="615.9565" x2="657.9565" y1="285.0938" y2="285.0938"/><line style="stroke:#181818;stroke-width:1;" x1="657.9565" x2="657.9565" y1="285.0938" y2="298.0938"/><line style="stroke:#181818;stroke-width:1;" x1="616.9565" x2="657.9565" y1="298.0938" y2="298.0938"/><polygon fill="#181818" points="626.9565,294.0938,616.9565,298.0938,626.9565,302.0938,622.9565,298.0938" style="stroke:#181818;stroke-width:1;"/><text fill="#000000" font-family="sans-serif" font-size="13" lengthAdjust="spacing" textLength="139.9976" x="622.9565" y="280.0278">OCR / Text extraction</text></g><g class="message" data-entity-1="part4" data-entity-2="part4" id="msg6"><line style="stroke:#181818;stroke-width:1;" x1="615.9565" x2="657.9565" y1="327.2266" y2="327.2266"/><line style="stroke:#181818;stroke-width:1;" x1="657.9565" x2="657.9565" y1="327.2266" y2="340.2266"/><line style="stroke:#181818;stroke-width:1;" x1="616.9565" x2="657.9565" y1="340.2266" y2="340.2266"/><polygon fill="#181818" points="626.9565,336.2266,616.9565,340.2266,626.9565,344.2266,622.9565,340.2266" style="stroke:#181818;stroke-width:1;"/><text fill="#000000" font-family="sans-serif" font-size="13" lengthAdjust="spacing" textLength="154.0894" x="622.9565" y="322.1606">Classification &amp; tagging</text></g><g class="message" data-entity-1="part4" data-entity-2="part4" id="msg7"><line style="stroke:#181818;stroke-width:1;" x1="615.9565" x2="657.9565" y1="369.3594" y2="369.3594"/><line style="stroke:#181818;stroke-width:1;" x1="657.9565" x2="657.9565" y1="369.3594" y2="382.3594"/><line style="stroke:#181818;stroke-width:1;" x1="616.9565" x2="657.9565" y1="382.3594" y2="382.3594"/><polygon fill="#181818" points="626.9565,378.3594,616.9565,382.3594,626.9565,386.3594,622.9565,382.3594" style="stroke:#181818;stroke-width:1;"/><text fill="#000000" font-family="sans-serif" font-size="13" lengthAdjust="spacing" textLength="207.6001" x="622.9565" y="364.2935">Generate metadata &amp; summary</text></g><g class="message" data-entity-1="part4" data-entity-2="part3" id="msg8"><polygon fill="#181818" points="497.668,407.4922,487.668,411.4922,497.668,415.4922,493.668,411.4922" style="stroke:#181818;stroke-width:1;"/><line style="stroke:#181818;stroke-width:1;" x1="491.668" x2="614.9565" y1="411.4922" y2="411.4922"/><text fill="#000000" font-family="sans-serif" font-size="13" lengthAdjust="spacing" textLength="105.2886" x="503.668" y="406.4263">Store AI outputs</text></g><g class="message" data-entity-1="part4" data-entity-2="part2" id="msg9"><polygon fill="#181818" points="316.5762,436.625,306.5762,440.625,316.5762,444.625,312.5762,440.625" style="stroke:#181818;stroke-width:1;"/><line style="stroke:#181818;stroke-width:1;" x1="310.5762" x2="614.9565" y1="440.625" y2="440.625"/><text fill="#000000" font-family="sans-serif" font-size="13" lengthAdjust="spacing" textLength="245.0513" x="322.5762" y="435.5591">Return results with confidence scores</text></g><g class="message" data-entity-1="part2" data-entity-2="part1" id="msg10"><polygon fill="#181818" points="50.4829,465.7578,40.4829,469.7578,50.4829,473.7578,46.4829,469.7578" style="stroke:#181818;stroke-width:1;"/><line style="stroke:#181818;stroke-width:1;" x1="44.4829" x2="304.5762" y1="469.7578" y2="469.7578"/><text fill="#000000" font-family="sans-serif" font-size="13" lengthAdjust="spacing" textLength="152.6548" x="56.4829" y="464.6919">Display analysis results</text></g><g class="message" data-entity-1="part2" data-entity-2="part5" id="msg11"><polygon fill="#181818" points="825.5566,494.8906,835.5566,498.8906,825.5566,502.8906,829.5566,498.8906" style="stroke:#181818;stroke-width:1;"/><line style="stroke:#181818;stroke-width:1;" x1="305.5762" x2="831.5566" y1="498.8906" y2="498.8906"/><text fill="#000000" font-family="sans-serif" font-size="13" lengthAdjust="spacing" textLength="205.0293" x="312.5762" y="493.8247">Send confirmation / notification</text></g><rect fill="#EEEEEE" height="3" style="stroke:#EEEEEE;stroke-width:1;" width="917.8169" x="0" y="527.457"/><line style="stroke:#000000;stroke-width:1;" x1="0" x2="917.8169" y1="527.457" y2="527.457"/><line style="stroke:#000000;stroke-width:1;" x1="0" x2="917.8169" y1="530.457" y2="530.457"/><rect fill="#EEEEEE" height="23.1328" style="stroke:#000000;stroke-width:2;" width="242.9727" x="337.4221" y="516.8906"/><text fill="#000000" font-family="sans-serif" font-size="13" font-weight="bold" lengthAdjust="spacing" textLength="224.4468" x="343.4221" y="532.9575">Alternate Flow: Upload Failure</text><g class="message" data-entity-1="part2" data-entity-2="part1" id="msg12"><polygon fill="#181818" points="50.4829,567.1563,40.4829,571.1563,50.4829,575.1563,46.4829,571.1563" style="stroke:#181818;stroke-width:1;"/><line style="stroke:#181818;stroke-width:1;" x1="44.4829" x2="304.5762" y1="571.1563" y2="571.1563"/><text fill="#000000" font-family="sans-serif" font-size="13" lengthAdjust="spacing" textLength="123.1826" x="56.4829" y="566.0903">Notify upload error</text></g><g class="message" data-entity-1="part1" data-entity-2="part2" id="msg13"><polygon fill="#181818" points="293.5762,596.2891,303.5762,600.2891,293.5762,604.2891,297.5762,600.2891" style="stroke:#181818;stroke-width:1;"/><line style="stroke:#181818;stroke-width:1;" x1="39.4829" x2="299.5762" y1="600.2891" y2="600.2891"/><text fill="#000000" font-family="sans-serif" font-size="13" lengthAdjust="spacing" textLength="83.5732" x="46.4829" y="595.2231">Retry upload</text></g><rect fill="#EEEEEE" height="3" style="stroke:#EEEEEE;stroke-width:1;" width="917.8169" x="0" y="628.8555"/><line style="stroke:#000000;stroke-width:1;" x1="0" x2="917.8169" y1="628.8555" y2="628.8555"/><line style="stroke:#000000;stroke-width:1;" x1="0" x2="917.8169" y1="631.8555" y2="631.8555"/><rect fill="#EEEEEE" height="23.1328" style="stroke:#000000;stroke-width:2;" width="270.9849" x="323.416" y="618.2891"/><text fill="#000000" font-family="sans-serif" font-size="13" font-weight="bold" lengthAdjust="spacing" textLength="252.459" x="329.416" y="634.356">Alternate Flow: AI Low Confidence</text><g class="message" data-entity-1="part4" data-entity-2="part2" id="msg14"><polygon fill="#181818" points="316.5762,668.5547,306.5762,672.5547,316.5762,676.5547,312.5762,672.5547" style="stroke:#181818;stroke-width:1;"/><line style="stroke:#181818;stroke-width:1;" x1="310.5762" x2="614.9565" y1="672.5547" y2="672.5547"/><text fill="#000000" font-family="sans-serif" font-size="13" lengthAdjust="spacing" textLength="181.4478" x="322.5762" y="667.4888">Return low-confidence flags</text></g><g class="message" data-entity-1="part2" data-entity-2="part1" id="msg15"><polygon fill="#181818" points="50.4829,697.6875,40.4829,701.6875,50.4829,705.6875,46.4829,701.6875" style="stroke:#181818;stroke-width:1;"/><line style="stroke:#181818;stroke-width:1;" x1="44.4829" x2="304.5762" y1="701.6875" y2="701.6875"/><text fill="#000000" font-family="sans-serif" font-size="13" lengthAdjust="spacing" textLength="242.0933" x="56.4829" y="696.6216">Highlight uncertain results for review</text></g><rect fill="#EEEEEE" height="3" style="stroke:#EEEEEE;stroke-width:1;" width="917.8169" x="0" y="730.2539"/><line style="stroke:#000000;stroke-width:1;" x1="0" x2="917.8169" y1="730.2539" y2="730.2539"/><line style="stroke:#000000;stroke-width:1;" x1="0" x2="917.8169" y1="733.2539" y2="733.2539"/><rect fill="#EEEEEE" height="23.1328" style="stroke:#000000;stroke-width:2;" width="217.4868" x="350.165" y="719.6875"/><text fill="#000000" font-family="sans-serif" font-size="13" font-weight="bold" lengthAdjust="spacing" textLength="198.9609" x="356.165" y="735.7544">Error Flow: Storage Failure</text><g class="message" data-entity-1="part3" data-entity-2="part2" id="msg16"><polygon fill="#181818" points="316.5762,769.9531,306.5762,773.9531,316.5762,777.9531,312.5762,773.9531" style="stroke:#181818;stroke-width:1;"/><line style="stroke:#181818;stroke-width:1;" x1="310.5762" x2="485.668" y1="773.9531" y2="773.9531"/><text fill="#000000" font-family="sans-serif" font-size="13" lengthAdjust="spacing" textLength="86.9819" x="322.5762" y="768.8872">Storage error</text></g><g class="message" data-entity-1="part2" data-entity-2="part1" id="msg17"><polygon fill="#181818" points="50.4829,799.0859,40.4829,803.0859,50.4829,807.0859,46.4829,803.0859" style="stroke:#181818;stroke-width:1;"/><line style="stroke:#181818;stroke-width:1;" x1="44.4829" x2="304.5762" y1="803.0859" y2="803.0859"/><text fill="#000000" font-family="sans-serif" font-size="13" lengthAdjust="spacing" textLength="137.6553" x="56.4829" y="798.02">Notify storage failure</text></g><?plantuml-src TP9FRzim3CNl_XH43Zkjw3r01XXPkmNO7w1TTYTasYKWIuP4DVC-_MXRQfnaFHYmvP_8znw9Hdo0pODhu1WfR00ZwCVqNWqOX0qFw0GsnmFSmt6m7XiuEA7Geg4PFnukoMUjY1t1CuLNpam-kmJhWxRgs2r8VLNcXnTksQ2mTnUrvXzZLUrsy1tPmQFr9zZjgYmRxZwf9DZg7Kj68g1wIxFm28qtgISdbHA5-usM6nI2bYs1Z0DzXCX_AJF5pdP-8_21LJFQwrhrqbERbH_GQhIew1WvLlMP-hb_qZ1_qHy1VGAQoUCQs5kCyUp-0mXsshHRCr_8KPXazoIe-b6ncFeUmvYnQ-LwwfCCIOgOsVuJIGeE0iLaDQqJomiOxrfko1c2QFHgp1vBn5lup76mEBxPA_SpkCoe13AN2_rYvXxSQhBp66kh--GcBzCijsND7f5jKjqws-lskVuoLg0GVBYPlneB1Vbl6mtXcwxE_cnMEzqce-pTAf3MOdURnrVkNgm-0acX8DDYbaYdDGZqodIQPJnCQhE4CgALrNBqjiRvUp7vJX0nG-rIvny0?></g></svg>