<?plantuml 1.2026.1beta5?><svg xmlns="http://www.w3.org/2000/svg" xmlns:xlink="http://www.w3.org/1999/xlink" contentStyleType="text/css" data-diagram-type="DESCRIPTION" height="510px" preserveAspectRatio="none" style="width:819px;height:510px;background:#FFFFFF;" version="1.1" viewBox="0 0 819 510" width="819px" zoomAndPan="magnify"><defs/><g><!--cluster System Services--><g class="cluster" data-qualified-name="System Services" data-source-line="15" id="ent0004"><rect fill="none" height="128.3" rx="2.5" ry="2.5" style="stroke:#181818;stroke-width:1;" width="607" x="119" y="7"/><text fill="#000000" font-family="sans-serif" font-size="14" font-weight="bold" lengthAdjust="spacing" textLength="129.7256" x="357.6372" y="21.9951">System Services</text></g><!--cluster AI-Powered Document Intelligence Service--><g class="cluster" data-qualified-name="AI-Powered Document Intelligence Service" data-source-line="23" id="ent0009"><rect fill="none" height="320.24" rx="2.5" ry="2.5" style="stroke:#181818;stroke-width:1;" width="628" x="7" y="184.3"/><text fill="#000000" font-family="sans-serif" font-size="14" font-weight="bold" lengthAdjust="spacing" textLength="336.6904" x="152.6548" y="199.2951">AI-Powered Document Intelligence Service</text></g><!--cluster Document Management--><g class="cluster" data-qualified-name="AI-Powered Document Intelligence Service.Document Management" data-source-line="26" id="ent0010"><rect fill="none" height="253.24" rx="2.5" ry="2.5" style="stroke:#181818;stroke-width:1;" width="298" x="31" y="227.3"/><text fill="#000000" font-family="sans-serif" font-size="14" font-weight="bold" lengthAdjust="spacing" textLength="188.1729" x="85.9136" y="242.2951">Document Management</text></g><!--cluster Search--><g class="cluster" data-qualified-name="AI-Powered Document Intelligence Service.Search" data-source-line="31" id="ent0013"><rect fill="none" height="108.53" rx="2.5" ry="2.5" style="stroke:#181818;stroke-width:1;" width="258" x="353" y="227.3"/><text fill="#000000" font-family="sans-serif" font-size="14" font-weight="bold" lengthAdjust="spacing" textLength="54.1953" x="454.9023" y="242.2951">Search</text></g><!--entity AIEngine--><g class="entity" data-qualified-name="System Services.AIEngine" data-source-line="16" id="ent0005"><ellipse cx="485.9988" cy="58.5" fill="#F1F1F1" rx="16" ry="16" style="stroke:#181818;stroke-width:0.5;"/><path d="M485.9988,78.5 C489.9988,78.5 492.9988,78.5 496.9988,74.5 C504.9988,74.5 512.9988,82.5 512.9988,90.5 L512.9988,94.5 C512.9988,98.5 508.9988,102.5 504.9988,102.5 L466.9988,102.5 C462.9988,102.5 458.9988,98.5 458.9988,94.5 L458.9988,90.5 C458.9988,82.5 466.9988,74.5 474.9988,74.5 C478.9988,78.5 481.9988,78.5 485.9988,78.5" fill="#F1F1F1" style="stroke:#181818;stroke-width:0.5;"/><text fill="#000000" font-family="sans-serif" font-size="14" lengthAdjust="spacing" textLength="66.1377" x="452.93" y="115.9951">AI Engine</text></g><!--entity Storage--><g class="entity" data-qualified-name="System Services.Storage" data-source-line="17" id="ent0006"><ellipse cx="362.0039" cy="58.5" fill="#F1F1F1" rx="16" ry="16" style="stroke:#181818;stroke-width:0.5;"/><path d="M362.0039,78.5 C366.0039,78.5 369.0039,78.5 373.0039,74.5 C381.0039,74.5 389.0039,82.5 389.0039,90.5 L389.0039,94.5 C389.0039,98.5 385.0039,102.5 381.0039,102.5 L343.0039,102.5 C339.0039,102.5 335.0039,98.5 335.0039,94.5 L335.0039,90.5 C335.0039,82.5 343.0039,74.5 351.0039,74.5 C355.0039,78.5 358.0039,78.5 362.0039,78.5" fill="#F1F1F1" style="stroke:#181818;stroke-width:0.5;"/><text fill="#000000" font-family="sans-serif" font-size="14" lengthAdjust="spacing" textLength="110.9678" x="306.52" y="115.9951">Storage Service</text></g><!--entity Notification--><g class="entity" data-qualified-name="System Services.Notification" data-source-line="18" id="ent0007"><ellipse cx="203.0003" cy="58.5" fill="#F1F1F1" rx="16" ry="16" style="stroke:#181818;stroke-width:0.5;"/><path d="M203.0003,78.5 C207.0003,78.5 210.0003,78.5 214.0003,74.5 C222.0003,74.5 230.0003,82.5 230.0003,90.5 L230.0003,94.5 C230.0003,98.5 226.0003,102.5 222.0003,102.5 L184.0003,102.5 C180.0003,102.5 176.0003,98.5 176.0003,94.5 L176.0003,90.5 C176.0003,82.5 184.0003,74.5 192.0003,74.5 C196.0003,78.5 199.0003,78.5 203.0003,78.5" fill="#F1F1F1" style="stroke:#181818;stroke-width:0.5;"/><text fill="#000000" font-family="sans-serif" font-size="14" lengthAdjust="spacing" textLength="136.5205" x="134.74" y="115.9951">Notification Service</text></g><!--entity SearchEngine--><g class="entity" data-qualified-name="System Services.SearchEngine" data-source-line="19" id="ent0008"><ellipse cx="631.9972" cy="58.5" fill="#F1F1F1" rx="16" ry="16" style="stroke:#181818;stroke-width:0.5;"/><path d="M631.9972,78.5 C635.9972,78.5 638.9972,78.5 642.9972,74.5 C650.9972,74.5 658.9972,82.5 658.9972,90.5 L658.9972,94.5 C658.9972,98.5 654.9972,102.5 650.9972,102.5 L612.9972,102.5 C608.9972,102.5 604.9972,98.5 604.9972,94.5 L604.9972,90.5 C604.9972,82.5 612.9972,74.5 620.9972,74.5 C624.9972,78.5 627.9972,78.5 631.9972,78.5" fill="#F1F1F1" style="stroke:#181818;stroke-width:0.5;"/><text fill="#000000" font-family="sans-serif" font-size="14" lengthAdjust="spacing" textLength="156.1943" x="553.9" y="115.9951">Search Engine Module</text></g><!--entity UC1--><g class="entity" data-qualified-name="AI-Powered Document Intelligence Service.Document Management.UC1" data-source-line="27" id="ent0011"><ellipse cx="203.0014" cy="291.0676" fill="#ADD8E6" rx="110.2714" ry="28.7676" style="stroke:#000000;stroke-width:0.5;"/><text fill="#000000" font-family="sans-serif" font-size="14" font-style="italic" lengthAdjust="spacing" textLength="37.1533" x="184.4248" y="279.4192">&#171;UC&#187;</text><text fill="#000000" font-family="sans-serif" font-size="14" lengthAdjust="spacing" textLength="203.5332" x="101.2348" y="295.7161">Document Upload &amp; Analysis</text><text fill="#000000" font-family="sans-serif" font-size="14" lengthAdjust="spacing" textLength="62.7197" x="171.6416" y="312.0129">(UC-001)</text></g><!--entity UC3--><g class="entity" data-qualified-name="AI-Powered Document Intelligence Service.Document Management.UC3" data-source-line="28" id="ent0012"><ellipse cx="180.0047" cy="435.6329" fill="#ADD8E6" rx="132.5647" ry="28.9129" style="stroke:#000000;stroke-width:0.5;"/><text fill="#000000" font-family="sans-serif" font-size="14" font-style="italic" lengthAdjust="spacing" textLength="37.1533" x="161.428" y="423.9845">&#171;UC&#187;</text><text fill="#000000" font-family="sans-serif" font-size="14" lengthAdjust="spacing" textLength="245.9844" x="57.0125" y="440.2814">Document Classification &amp; Tagging</text><text fill="#000000" font-family="sans-serif" font-size="14" lengthAdjust="spacing" textLength="62.7197" x="148.6448" y="456.5782">(UC-003)</text></g><!--entity UC2--><g class="entity" data-qualified-name="AI-Powered Document Intelligence Service.Search.UC2" data-source-line="32" id="ent0014"><ellipse cx="481.9993" cy="291.0676" fill="#ADD8E6" rx="112.6493" ry="28.7676" style="stroke:#000000;stroke-width:0.5;"/><text fill="#000000" font-family="sans-serif" font-size="14" font-style="italic" lengthAdjust="spacing" textLength="37.1533" x="463.4226" y="279.4192">&#171;UC&#187;</text><text fill="#000000" font-family="sans-serif" font-size="14" lengthAdjust="spacing" textLength="208.0449" x="377.9768" y="295.7161">Document Search &amp; Retrieval</text><text fill="#000000" font-family="sans-serif" font-size="14" lengthAdjust="spacing" textLength="62.7197" x="450.6394" y="312.0129">(UC-002)</text></g><!--entity EndUser--><g class="entity" data-qualified-name="EndUser" data-source-line="11" id="ent0002"><ellipse cx="68.0029" cy="58.5" fill="#F1F1F1" rx="16" ry="16" style="stroke:#181818;stroke-width:0.5;"/><path d="M68.0029,78.5 C72.0029,78.5 75.0029,78.5 79.0029,74.5 C87.0029,74.5 95.0029,82.5 95.0029,90.5 L95.0029,94.5 C95.0029,98.5 91.0029,102.5 87.0029,102.5 L49.0029,102.5 C45.0029,102.5 41.0029,98.5 41.0029,94.5 L41.0029,90.5 C41.0029,82.5 49.0029,74.5 57.0029,74.5 C61.0029,78.5 64.0029,78.5 68.0029,78.5" fill="#F1F1F1" style="stroke:#181818;stroke-width:0.5;"/><text fill="#000000" font-family="sans-serif" font-size="14" lengthAdjust="spacing" textLength="62.9658" x="36.52" y="115.9951">End User</text></g><!--entity Admin--><g class="entity" data-qualified-name="Admin" data-source-line="12" id="ent0003"><ellipse cx="699.0013" cy="268.92" fill="#F1F1F1" rx="16" ry="16" style="stroke:#181818;stroke-width:0.5;"/><path d="M699.0013,288.92 C703.0013,288.92 706.0013,288.92 710.0013,284.92 C718.0013,284.92 726.0013,292.92 726.0013,300.92 L726.0013,304.92 C726.0013,308.92 722.0013,312.92 718.0013,312.92 L680.0013,312.92 C676.0013,312.92 672.0013,308.92 672.0013,304.92 L672.0013,300.92 C672.0013,292.92 680.0013,284.92 688.0013,284.92 C692.0013,288.92 695.0013,288.92 699.0013,288.92" fill="#F1F1F1" style="stroke:#181818;stroke-width:0.5;"/><text fill="#000000" font-family="sans-serif" font-size="14" lengthAdjust="spacing" textLength="95.6826" x="651.16" y="326.4151">Administrator</text></g><!--link EndUser to UC1--><g class="link" data-entity-1="ent0002" data-entity-2="ent0011" data-link-type="dependency" data-source-line="37" id="lnk15"><path d="M92.45,119.39 C119.12,160.57 157.9182,220.4641 181.7282,257.2241" fill="none" id="EndUser-to-UC1" style="stroke:#181818;stroke-width:1;"/><polygon fill="#181818" points="184.99,262.26,183.4545,252.5316,182.2718,258.0634,176.74,256.8807,184.99,262.26" style="stroke:#181818;stroke-width:1;"/></g><!--link EndUser to UC2--><g class="link" data-entity-1="ent0002" data-entity-2="ent0014" data-link-type="dependency" data-source-line="38" id="lnk16"><path d="M92.13,119.6 C99.67,128.69 108.74,137.45 119,143.3 C139.52,154.99 307.22,167.15 329,176.3 C377.83,196.81 420.9824,232.049 449.7824,258.649" fill="none" id="EndUser-to-UC2" style="stroke:#181818;stroke-width:1;"/><polygon fill="#181818" points="454.19,262.72,450.2925,253.6751,450.517,259.3275,444.8646,259.552,454.19,262.72" style="stroke:#181818;stroke-width:1;"/></g><!--link Admin to UC3--><g class="link" data-entity-1="ent0003" data-entity-2="ent0012" data-link-type="dependency" data-source-line="39" id="lnk17"><path d="M650.92,326.04 C623.25,343.94 587.09,364.64 552,376.71 C472.58,404.04 385.1276,417.9076 311.7776,425.5576" fill="none" id="Admin-to-UC3" style="stroke:#181818;stroke-width:1;"/><polygon fill="#181818" points="305.81,426.18,315.1764,429.2248,310.783,425.6613,314.3465,421.268,305.81,426.18" style="stroke:#181818;stroke-width:1;"/></g><!--link AIEngine to UC1--><g class="link" data-entity-1="ent0005" data-entity-2="ent0011" data-link-type="dependency" data-source-line="42" id="lnk18"><path d="M459.55,119.7 C452.32,128.26 443.97,136.74 435,143.3 C403.28,166.48 387.17,156.92 353,176.3 C308.64,201.44 267.2158,234.2973 238.0458,259.1673" fill="none" id="AIEngine-to-UC1" style="stroke:#181818;stroke-width:1;"/><polygon fill="#181818" points="233.48,263.06,242.9239,260.2647,237.2848,259.816,237.7335,254.177,233.48,263.06" style="stroke:#181818;stroke-width:1;"/></g><!--link AIEngine to UC3--><g class="link" data-entity-1="ent0005" data-entity-2="ent0012" data-link-type="dependency" data-source-line="43" id="lnk19"><path d="M509.09,119.6 C516.53,128.82 525.59,137.63 536,143.3 C550.53,151.21 593.61,149.08 610,151.3 C678.72,160.58 719.07,123.48 764,176.3 C812.25,233.01 811.29,286.32 764,343.83 C708.36,411.5 473.1276,429.1211 318.6376,433.4711" fill="none" id="AIEngine-to-UC3" style="stroke:#181818;stroke-width:1;"/><polygon fill="#181818" points="312.64,433.64,321.749,437.3851,317.638,433.4993,321.5239,429.3883,312.64,433.64" style="stroke:#181818;stroke-width:1;"/></g><!--link Storage to UC1--><g class="link" data-entity-1="ent0006" data-entity-2="ent0011" data-link-type="dependency" data-source-line="44" id="lnk20"><path d="M320.16,119.55 C310.13,129.46 299.8,140.42 291,151.3 C261.94,187.23 237.3623,228.031 221.0723,256.981" fill="none" id="Storage-to-UC1" style="stroke:#181818;stroke-width:1;"/><polygon fill="#181818" points="218.13,262.21,226.0295,256.328,220.5819,257.8525,219.0575,252.4049,218.13,262.21" style="stroke:#181818;stroke-width:1;"/></g><!--link Storage to UC2--><g class="link" data-entity-1="ent0006" data-entity-2="ent0014" data-link-type="dependency" data-source-line="45" id="lnk21"><path d="M383.73,119.39 C407.44,160.57 441.8257,220.3006 462.9957,257.0606" fill="none" id="Storage-to-UC2" style="stroke:#181818;stroke-width:1;"/><polygon fill="#181818" points="465.99,262.26,464.9648,252.4646,463.4947,257.9272,458.0322,256.4571,465.99,262.26" style="stroke:#181818;stroke-width:1;"/></g><!--link Notification to UC1--><g class="link" data-entity-1="ent0007" data-entity-2="ent0011" data-link-type="dependency" data-source-line="46" id="lnk22"><path d="M203,119.39 C203,160.45 203,219.13 203,255.95" fill="none" id="Notification-to-UC1" style="stroke:#181818;stroke-width:1;"/><polygon fill="#181818" points="203,261.95,207,252.95,203,256.95,199,252.95,203,261.95" style="stroke:#181818;stroke-width:1;"/></g><!--link SearchEngine to UC2--><g class="link" data-entity-1="ent0008" data-entity-2="ent0014" data-link-type="dependency" data-source-line="47" id="lnk23"><path d="M627.11,119.67 C623.9,135.49 618.62,153.56 610,168.3 C587.3,207.08 553.4272,237.6936 524.5172,259.9136" fill="none" id="SearchEngine-to-UC2" style="stroke:#181818;stroke-width:1;"/><polygon fill="#181818" points="519.76,263.57,529.3334,261.2569,523.7243,260.523,524.4582,254.914,519.76,263.57" style="stroke:#181818;stroke-width:1;"/></g><!--link UC2 to SearchEngine--><g class="link" data-entity-1="ent0014" data-entity-2="ent0008" data-link-type="dependency" data-source-line="52" id="lnk26"><path d="M470.6,262.11 C460.02,231.1 449.52,181.48 476,151.3 C485.02,141.02 524.17,148.02 537,143.3 C552.68,137.52 563.3834,132.0408 577.4234,122.9508" fill="none" id="UC2-to-SearchEngine" style="stroke:#181818;stroke-width:1;"/><polygon fill="#181818" points="582.46,119.69,572.7313,121.2236,578.2629,122.4074,577.0791,127.939,582.46,119.69" style="stroke:#181818;stroke-width:1;"/><text fill="#000000" font-family="sans-serif" font-size="13" lengthAdjust="spacing" textLength="124.7124" x="477" y="164.3669">queries documents</text></g><!--link UC1 to UC3--><g class="link" data-entity-1="ent0011" data-entity-2="ent0012" data-link-type="dependency" data-source-line="50" id="lnk24"><path d="M198.46,320.23 C194.42,345.22 189.5156,375.6166 185.4856,400.5966" fill="none" id="UC1-to-UC3" style="stroke:#181818;stroke-width:1;"/><polygon fill="#181818" points="184.53,406.52,189.9124,398.272,185.3263,401.5838,182.0145,396.9978,184.53,406.52" style="stroke:#181818;stroke-width:1;"/><text fill="#000000" font-family="sans-serif" font-size="13" lengthAdjust="spacing" textLength="147.126" x="192" y="372.7769">performs classification</text></g><!--link UC2 to UC3--><g class="link" data-entity-1="ent0014" data-entity-2="ent0012" data-link-type="dependency" data-source-line="51" id="lnk25"><path d="M445.22,318.57 C419.02,336.62 382.48,360.16 348,376.71 C319.49,390.4 292.5798,400.5358 263.7198,410.0258" fill="none" id="UC2-to-UC3" style="stroke:#181818;stroke-width:1;"/><polygon fill="#181818" points="258.02,411.9,267.8191,412.8885,262.7698,410.3381,265.3201,405.2888,258.02,411.9" style="stroke:#181818;stroke-width:1;"/><text fill="#000000" font-family="sans-serif" font-size="13" lengthAdjust="spacing" textLength="164.4932" x="379" y="372.7769">uses classification &amp; tags</text></g><?plantuml-src VLDDRzf04BtlhnXnWFQ0bC0j2aZWLXLIKbMXt7APsXEpodhNtLqdGX7_lVjfR2h51ykpytZpTjvZ1glL2Xxmf3eBUxAMozhuCsPL2rR17sMjQg3YcahBbMJcbSiMDJRGOlcADUtjIH3uDifQq020fLKwjl6TZ6g6pSvGYORWWm5i7LEjLIUhGWcbx-yFnNeD3xm-sgteo2EKhaY7Bco5WxCpOxCWVkEdHCrX84o-omeEXlG4q80h_7VkRQg6IswiHbS6G3Z9PFkJiTIuJUWtNb9aJVU4oLLp4hG3PEQTcrLpIP5r5uiXOk_UdYWH15mw6y9-AijVU8b-tIFii37Y9TJbCKs7HrLr8f67HX9olhhZrkyRzIdSiRVFtsF-IxsJfWg-gR9hI5hOIKj2y9faEP3_mOAA6VnmthKk0WAj-vLp5hor1hXq2KhhCm7RxxAdVaJf3lndtgT_SZekk4Ch55OmXOr4SJBSFCilXs9-StFxDTprKDn23Cud98L0OoxBdS9lhDrowiorp5pB8TUPZRN7jNukDtaoXIUocjCRYZnZaMSinZF6WOP2IHd_SZ65ASSmdw_zNQ_g1GinJjMojpfQzHzPJcVFTdMmP3ch6J2k5smKqXuqo5kFJ5ASM2ZyZfvyJBoI8s-Z6czTcWjtq99-KRenK8xCOdvX5rJdyrLUsscnDZrmfEOE_dRaZ31G9OlCFm00?></g></svg>